<svg id="Layer_1" data-name="Layer 1" xmlns="http://www.w3.org/2000/svg" xmlns:xlink="http://www.w3.org/1999/xlink" viewBox="0 0 120 120"><defs><style>.cls-1{fill:none;}.cls-2{clip-path:url(#clip-path);}.cls-3{fill:#121212;}.cls-4{fill:#fff;}</style><clipPath id="clip-path"><rect class="cls-1" x="-0.08" width="120" height="120"/></clipPath></defs><title>Artboard 15</title><g class="cls-2"><rect class="cls-3" x="-0.08" width="120" height="120"/><path class="cls-4" d="M28.33,95a5.89,5.89,0,0,1,0,8.31l-4.15,4.15L12.46,95.75l4.15-4.15a5.87,5.87,0,0,1,8.31,0Zm-4.91-1.92a3.76,3.76,0,0,0-5.33,0l-2.65,2.65,8.74,8.74,2.65-2.65a3.77,3.77,0,0,0,0-5.33Z"/><path class="cls-4" d="M35.63,96,23.92,84.29,32.24,76l1.48,1.48L26.9,84.27l3.63,3.63,6.81-6.81,1.48,1.48L32,89.38,35.65,93l6.81-6.81,1.48,1.48Z"/><path class="cls-4" d="M57.52,74.11,55.67,76a4.55,4.55,0,0,1-5.26.83l.92-1.88a2.5,2.5,0,0,0,2.87-.43L56,72.63A2.52,2.52,0,0,0,56,69.08c-.93-.93-2-.7-3.1-.07-.87.5-1.77,1.2-2.73,1.83-1.88,1.25-3.93,2.1-6.1-.07A4.61,4.61,0,0,1,44,64.25l1.85-1.85a4.58,4.58,0,0,1,5.25-.85l-.93,1.9a2.43,2.43,0,0,0-2.83.43l-1.85,1.85a2.51,2.51,0,0,0,.08,3.55c.93.93,2,.7,3.1.07.87-.5,1.77-1.2,2.73-1.83,1.88-1.25,3.93-2.1,6.1.07A4.63,4.63,0,0,1,57.52,74.11Z"/><path class="cls-4" d="M57.52,53.65,67.75,63.88l-1.48,1.48L56,55.14l-3.41,3.41-1.48-1.48,8.31-8.31,1.48,1.48Z"/><path class="cls-4" d="M77.85,45.48a5.88,5.88,0,0,1-8.31,8.31L62,46.23l1.5-1.5L71,52.29A3.76,3.76,0,1,0,76.35,47l-7.56-7.56,1.5-1.5Z"/><path class="cls-4" d="M89.51,33.82a5.89,5.89,0,0,1,0,8.31l-4.15,4.15L73.64,34.57l4.15-4.15a5.87,5.87,0,0,1,8.31,0ZM84.6,31.91a3.76,3.76,0,0,0-5.33,0l-2.65,2.65,8.74,8.74L88,40.65a3.77,3.77,0,0,0,0-5.33Z"/><path class="cls-4" d="M96.84,34.79,85.13,23.08l1.5-1.5L98.34,33.29Z"/><path class="cls-4" d="M105.66,17.67A5.88,5.88,0,0,1,97.35,26l-3.41-3.41a5.88,5.88,0,0,1,8.31-8.31Zm-4.91-1.92a3.76,3.76,0,1,0-5.31,5.31l3.41,3.41a3.76,3.76,0,1,0,5.31-5.31Z"/><path class="cls-4" d="M28.33,35a5.89,5.89,0,0,1,0,8.31l-4.15,4.15L12.46,35.75l4.15-4.15a5.87,5.87,0,0,1,8.31,0Zm-4.91-1.92a3.76,3.76,0,0,0-5.33,0l-2.65,2.65,8.74,8.74,2.65-2.65a3.77,3.77,0,0,0,0-5.33Z"/><path class="cls-4" d="M35.63,36,23.92,24.29,32.24,16l1.48,1.48L26.9,24.27l3.63,3.63,6.81-6.81,1.48,1.48L32,29.38,35.65,33l6.81-6.81,1.48,1.48Z"/><path class="cls-4" d="M57.52,14.11,55.67,16a4.55,4.55,0,0,1-5.26.83l.92-1.88a2.5,2.5,0,0,0,2.87-.43L56,12.63A2.52,2.52,0,0,0,56,9.08c-.93-.93-2-.7-3.1-.07-.87.5-1.77,1.2-2.73,1.83-1.88,1.25-3.93,2.1-6.1-.07A4.61,4.61,0,0,1,44,4.25L45.81,2.4a4.58,4.58,0,0,1,5.25-.85l-.93,1.9a2.43,2.43,0,0,0-2.83.43L45.44,5.73a2.51,2.51,0,0,0,.08,3.55c.93.93,2,.7,3.1.07.87-.5,1.77-1.2,2.73-1.83,1.88-1.25,3.93-2.1,6.1.07A4.63,4.63,0,0,1,57.52,14.11Z"/><path class="cls-4" d="M57.52-6.35,67.75,3.88,66.27,5.36,56-4.86,52.63-1.45,51.14-2.93l8.31-8.31,1.48,1.48Z"/><path class="cls-4" d="M57.52,113.82,67.75,124l-1.48,1.48L56,115.3l-3.41,3.41-1.48-1.48,8.31-8.31,1.48,1.48Z"/><path class="cls-4" d="M77.85,105.64A5.88,5.88,0,0,1,69.54,114L62,106.4l1.5-1.5L71,112.46a3.76,3.76,0,1,0,5.31-5.31l-7.56-7.56,1.5-1.5Z"/><path class="cls-4" d="M89.51,94a5.89,5.89,0,0,1,0,8.31l-4.15,4.15L73.64,94.74l4.15-4.15a5.87,5.87,0,0,1,8.31,0ZM84.6,92.07a3.76,3.76,0,0,0-5.33,0l-2.65,2.65,8.74,8.74L88,100.82a3.77,3.77,0,0,0,0-5.33Z"/><path class="cls-4" d="M96.84,95,85.13,83.24l1.5-1.5L98.34,93.45Z"/><path class="cls-4" d="M105.66,77.84a5.88,5.88,0,0,1-8.31,8.31l-3.41-3.41a5.88,5.88,0,0,1,8.31-8.31Zm-4.91-1.92a3.76,3.76,0,1,0-5.31,5.31l3.41,3.41a3.76,3.76,0,1,0,5.31-5.31Z"/></g></svg>