<?xml version="1.0" encoding="UTF-8" standalone="no"?>
<svg width="18px" height="64px" viewBox="0 0 18 64" version="1.1" xmlns="http://www.w3.org/2000/svg" xmlns:xlink="http://www.w3.org/1999/xlink">
    <!-- Generator: Sketch 41.2 (35397) - http://www.bohemiancoding.com/sketch -->
    <title>roem logo</title>
    <desc>Created with Sketch.</desc>
    <defs></defs>
    <g id="Page-1" stroke="none" stroke-width="1" fill="none" fill-rule="evenodd">
        <g id="roem-logo" fill="#1A1A1A">
            <path d="M-10.075,40.725 L-13.65,32.675 C-11.85,31.9 -10.675,30.075 -10.675,28.1 C-10.675,25.4 -12.8,23.15 -15.525,23.15 L-23.15,23.15 L-23.15,40.725 L-20.9,40.725 L-20.9,33.05 L-15.95,33.05 L-12.525,40.725 L-10.075,40.725 Z M-12.925,28.1 C-12.925,29.55 -14.025,30.825 -15.525,30.825 L-20.9,30.825 L-20.9,25.375 L-15.525,25.375 C-14.025,25.375 -12.925,26.65 -12.925,28.1 Z M4.775,29.375 C4.775,25.925 1.975,23.15 -1.475,23.15 C-4.9,23.15 -7.7,25.925 -7.7,29.375 L-7.7,34.5 C-7.7,37.925 -4.9,40.725 -1.475,40.725 C1.975,40.725 4.775,37.925 4.775,34.5 L4.775,29.375 Z M2.525,34.5 C2.525,36.7 0.75,38.5 -1.475,38.5 C-3.675,38.5 -5.45,36.7 -5.45,34.5 L-5.45,29.375 C-5.45,27.175 -3.675,25.375 -1.475,25.375 C0.75,25.375 2.525,27.175 2.525,29.375 L2.525,34.5 Z M21,40.725 L21,38.5 L10.775,38.5 L10.775,33.05 L21,33.05 L21,30.825 L10.775,30.825 L10.775,25.375 L21,25.375 L21,23.15 L8.525,23.15 L8.525,40.725 L21,40.725 Z M40.725,40.725 L40.725,23.15 L38.575,23.15 L32.825,37.525 L27.025,23.15 L24.875,23.15 L24.875,40.725 L27.125,40.725 L27.125,28.9 L31.8,40.725 L33.85,40.725 L38.475,28.9 L38.475,40.725 L40.725,40.725 Z" id="ROEM" transform="translate(8.787500, 31.937500) rotate(-90.000000) translate(-8.787500, -31.937500) "></path>
        </g>
    </g>
</svg>