<?xml version="1.0" encoding="utf-8"?>
<!-- Generator: Adobe Illustrator 21.1.0, SVG Export Plug-In . SVG Version: 6.00 Build 0)  -->
<svg version="1.1" id="Layer_1" xmlns="http://www.w3.org/2000/svg" xmlns:xlink="http://www.w3.org/1999/xlink" x="0px" y="0px"
	 viewBox="0 0 186 186.8" style="enable-background:new 0 0 186 186.8;" xml:space="preserve">
<style type="text/css">
	.st0{fill:#1A1A1A;}
	.st1{fill:#E6E6E6;}
	.st2{clip-path:url(#SVGID_2_);}
	.st3{clip-path:url(#SVGID_4_);}
	.st4{clip-path:url(#SVGID_6_);}
	.st5{clip-path:url(#SVGID_8_);}
	.st6{clip-path:url(#SVGID_10_);}
	.st7{clip-path:url(#SVGID_12_);}
	.st8{clip-path:url(#SVGID_14_);}
	.st9{clip-path:url(#SVGID_16_);}
	.st10{clip-path:url(#SVGID_18_);}
	.st11{clip-path:url(#SVGID_20_);}
	.st12{clip-path:url(#SVGID_22_);}
	.st13{clip-path:url(#SVGID_24_);}
	.st14{clip-path:url(#SVGID_26_);}
	.st15{clip-path:url(#SVGID_28_);}
	.st16{clip-path:url(#SVGID_30_);}
	.st17{clip-path:url(#SVGID_32_);}
	.st18{clip-path:url(#SVGID_34_);}
	.st19{clip-path:url(#SVGID_36_);}
	.st20{clip-path:url(#SVGID_38_);}
	.st21{clip-path:url(#SVGID_40_);}
	.st22{clip-path:url(#SVGID_42_);}
	.st23{clip-path:url(#SVGID_44_);}
	.st24{clip-path:url(#SVGID_46_);}
	.st25{clip-path:url(#SVGID_48_);}
	.st26{clip-path:url(#SVGID_50_);}
	.st27{clip-path:url(#SVGID_52_);}
	.st28{clip-path:url(#SVGID_54_);}
	.st29{clip-path:url(#SVGID_56_);}
	.st30{clip-path:url(#SVGID_58_);}
	.st31{clip-path:url(#SVGID_60_);}
	.st32{clip-path:url(#SVGID_62_);}
	.st33{clip-path:url(#SVGID_64_);}
	.st34{clip-path:url(#SVGID_66_);}
	.st35{clip-path:url(#SVGID_68_);}
	.st36{clip-path:url(#SVGID_70_);}
	.st37{clip-path:url(#SVGID_72_);}
	.st38{clip-path:url(#SVGID_74_);}
	.st39{clip-path:url(#SVGID_76_);}
	.st40{clip-path:url(#SVGID_78_);}
	.st41{clip-path:url(#SVGID_80_);}
	.st42{clip-path:url(#SVGID_82_);}
	.st43{clip-path:url(#SVGID_84_);}
	.st44{clip-path:url(#SVGID_86_);}
	.st45{clip-path:url(#SVGID_88_);}
	.st46{clip-path:url(#SVGID_90_);}
	.st47{clip-path:url(#SVGID_92_);}
	.st48{clip-path:url(#SVGID_94_);}
	.st49{clip-path:url(#SVGID_96_);}
	.st50{clip-path:url(#SVGID_98_);}
	.st51{clip-path:url(#SVGID_100_);}
	.st52{clip-path:url(#SVGID_102_);}
	.st53{clip-path:url(#SVGID_104_);}
	.st54{clip-path:url(#SVGID_106_);}
	.st55{clip-path:url(#SVGID_108_);}
	.st56{clip-path:url(#SVGID_110_);}
	.st57{clip-path:url(#SVGID_112_);}
	.st58{clip-path:url(#SVGID_114_);}
	.st59{clip-path:url(#SVGID_116_);}
	.st60{clip-path:url(#SVGID_118_);}
	.st61{clip-path:url(#SVGID_120_);}
	.st62{clip-path:url(#SVGID_122_);}
	.st63{clip-path:url(#SVGID_124_);}
	.st64{clip-path:url(#SVGID_126_);}
	.st65{clip-path:url(#SVGID_128_);}
	.st66{clip-path:url(#SVGID_130_);}
	.st67{clip-path:url(#SVGID_132_);}
	.st68{clip-path:url(#SVGID_134_);}
	.st69{clip-path:url(#SVGID_136_);}
	.st70{clip-path:url(#SVGID_138_);}
	.st71{clip-path:url(#SVGID_140_);}
	.st72{clip-path:url(#SVGID_142_);}
	.st73{clip-path:url(#SVGID_144_);}
	.st74{clip-path:url(#SVGID_146_);}
	.st75{clip-path:url(#SVGID_148_);}
	.st76{clip-path:url(#SVGID_150_);}
	.st77{clip-path:url(#SVGID_152_);}
	.st78{clip-path:url(#SVGID_154_);}
	.st79{clip-path:url(#SVGID_156_);}
	.st80{clip-path:url(#SVGID_158_);}
	.st81{clip-path:url(#SVGID_160_);}
	.st82{clip-path:url(#SVGID_162_);}
	.st83{clip-path:url(#SVGID_164_);}
	.st84{clip-path:url(#SVGID_166_);}
	.st85{clip-path:url(#SVGID_168_);}
	.st86{clip-path:url(#SVGID_170_);}
	.st87{clip-path:url(#SVGID_172_);}
	.st88{clip-path:url(#SVGID_174_);}
	.st89{clip-path:url(#SVGID_176_);}
	.st90{clip-path:url(#SVGID_178_);}
	.st91{clip-path:url(#SVGID_180_);}
	.st92{clip-path:url(#SVGID_182_);}
	.st93{clip-path:url(#SVGID_184_);}
	.st94{clip-path:url(#SVGID_186_);}
	.st95{clip-path:url(#SVGID_188_);}
	.st96{clip-path:url(#SVGID_190_);}
	.st97{clip-path:url(#SVGID_192_);}
	.st98{clip-path:url(#SVGID_194_);}
	.st99{clip-path:url(#SVGID_196_);}
	.st100{clip-path:url(#SVGID_198_);}
	.st101{clip-path:url(#SVGID_200_);}
	.st102{clip-path:url(#SVGID_202_);}
	.st103{clip-path:url(#SVGID_204_);}
	.st104{clip-path:url(#SVGID_206_);}
	.st105{clip-path:url(#SVGID_208_);}
	.st106{clip-path:url(#SVGID_210_);}
	.st107{clip-path:url(#SVGID_212_);}
	.st108{clip-path:url(#SVGID_214_);}
	.st109{clip-path:url(#SVGID_216_);}
	.st110{clip-path:url(#SVGID_218_);}
	.st111{clip-path:url(#SVGID_220_);}
	.st112{clip-path:url(#SVGID_222_);}
	.st113{clip-path:url(#SVGID_224_);}
	.st114{clip-path:url(#SVGID_226_);}
	.st115{clip-path:url(#SVGID_228_);}
	.st116{clip-path:url(#SVGID_230_);}
	.st117{clip-path:url(#SVGID_232_);}
	.st118{clip-path:url(#SVGID_234_);}
	.st119{clip-path:url(#SVGID_236_);}
	.st120{clip-path:url(#SVGID_238_);}
	.st121{clip-path:url(#SVGID_240_);}
	.st122{clip-path:url(#SVGID_242_);}
	.st123{clip-path:url(#SVGID_244_);}
	.st124{clip-path:url(#SVGID_246_);}
	.st125{clip-path:url(#SVGID_248_);}
	.st126{clip-path:url(#SVGID_250_);}
	.st127{clip-path:url(#SVGID_252_);}
	.st128{clip-path:url(#SVGID_254_);}
	.st129{clip-path:url(#SVGID_256_);}
	.st130{clip-path:url(#SVGID_258_);}
	.st131{clip-path:url(#SVGID_260_);}
	.st132{clip-path:url(#SVGID_262_);}
	.st133{clip-path:url(#SVGID_264_);}
	.st134{clip-path:url(#SVGID_266_);}
	.st135{clip-path:url(#SVGID_268_);}
	.st136{clip-path:url(#SVGID_270_);}
	.st137{clip-path:url(#SVGID_272_);}
	.st138{clip-path:url(#SVGID_274_);}
	.st139{clip-path:url(#SVGID_276_);}
	.st140{clip-path:url(#SVGID_278_);}
	.st141{clip-path:url(#SVGID_280_);}
	.st142{clip-path:url(#SVGID_282_);}
	.st143{clip-path:url(#SVGID_284_);}
	.st144{clip-path:url(#SVGID_286_);}
	.st145{clip-path:url(#SVGID_288_);}
	.st146{clip-path:url(#SVGID_290_);}
	.st147{clip-path:url(#SVGID_292_);}
	.st148{clip-path:url(#SVGID_294_);}
	.st149{clip-path:url(#SVGID_296_);}
	.st150{fill:#F2F2F2;}
	.st151{clip-path:url(#SVGID_298_);}
	.st152{clip-path:url(#SVGID_300_);}
	.st153{clip-path:url(#SVGID_302_);}
	.st154{clip-path:url(#SVGID_304_);}
	.st155{clip-path:url(#SVGID_306_);}
	.st156{clip-path:url(#SVGID_308_);}
	.st157{clip-path:url(#SVGID_310_);}
	.st158{clip-path:url(#SVGID_312_);}
	.st159{clip-path:url(#SVGID_314_);}
	.st160{clip-path:url(#SVGID_316_);}
	.st161{clip-path:url(#SVGID_318_);}
	.st162{clip-path:url(#SVGID_320_);}
	.st163{clip-path:url(#SVGID_322_);}
	.st164{clip-path:url(#SVGID_324_);}
	.st165{clip-path:url(#SVGID_326_);}
	.st166{clip-path:url(#SVGID_328_);}
	.st167{clip-path:url(#SVGID_330_);}
	.st168{clip-path:url(#SVGID_332_);}
	.st169{clip-path:url(#SVGID_334_);}
	.st170{clip-path:url(#SVGID_336_);}
	.st171{clip-path:url(#SVGID_338_);}
	.st172{clip-path:url(#SVGID_340_);}
	.st173{clip-path:url(#SVGID_342_);}
	.st174{clip-path:url(#SVGID_344_);}
	.st175{clip-path:url(#SVGID_346_);}
	.st176{clip-path:url(#SVGID_348_);}
	.st177{clip-path:url(#SVGID_350_);}
	.st178{clip-path:url(#SVGID_352_);}
	.st179{clip-path:url(#SVGID_354_);}
	.st180{clip-path:url(#SVGID_356_);}
	.st181{clip-path:url(#SVGID_358_);}
	.st182{clip-path:url(#SVGID_360_);}
	.st183{clip-path:url(#SVGID_362_);}
	.st184{clip-path:url(#SVGID_364_);}
	.st185{clip-path:url(#SVGID_366_);}
	.st186{clip-path:url(#SVGID_368_);}
	.st187{clip-path:url(#SVGID_370_);}
	.st188{clip-path:url(#SVGID_372_);}
	.st189{clip-path:url(#SVGID_374_);}
	.st190{clip-path:url(#SVGID_376_);}
	.st191{clip-path:url(#SVGID_378_);}
	.st192{clip-path:url(#SVGID_380_);}
	.st193{clip-path:url(#SVGID_382_);}
	.st194{clip-path:url(#SVGID_384_);}
	.st195{clip-path:url(#SVGID_386_);}
	.st196{clip-path:url(#SVGID_388_);}
	.st197{clip-path:url(#SVGID_390_);}
	.st198{clip-path:url(#SVGID_392_);}
	.st199{clip-path:url(#SVGID_394_);}
	.st200{clip-path:url(#SVGID_396_);}
	.st201{clip-path:url(#SVGID_398_);}
	.st202{clip-path:url(#SVGID_400_);}
	.st203{clip-path:url(#SVGID_402_);}
	.st204{clip-path:url(#SVGID_404_);}
	.st205{clip-path:url(#SVGID_406_);}
	.st206{clip-path:url(#SVGID_408_);}
	.st207{clip-path:url(#SVGID_410_);}
	.st208{clip-path:url(#SVGID_412_);}
	.st209{clip-path:url(#SVGID_414_);}
	.st210{clip-path:url(#SVGID_416_);}
	.st211{clip-path:url(#SVGID_418_);}
	.st212{clip-path:url(#SVGID_420_);}
	.st213{clip-path:url(#SVGID_422_);}
	.st214{clip-path:url(#SVGID_424_);}
	.st215{clip-path:url(#SVGID_426_);}
	.st216{clip-path:url(#SVGID_428_);}
	.st217{clip-path:url(#SVGID_430_);}
	.st218{clip-path:url(#SVGID_432_);}
	.st219{clip-path:url(#SVGID_434_);}
	.st220{clip-path:url(#SVGID_436_);}
	.st221{clip-path:url(#SVGID_438_);}
	.st222{clip-path:url(#SVGID_440_);}
	.st223{clip-path:url(#SVGID_442_);}
	.st224{clip-path:url(#SVGID_444_);}
	.st225{clip-path:url(#SVGID_446_);}
	.st226{clip-path:url(#SVGID_448_);}
	.st227{clip-path:url(#SVGID_450_);}
	.st228{clip-path:url(#SVGID_452_);}
	.st229{clip-path:url(#SVGID_454_);}
	.st230{clip-path:url(#SVGID_456_);}
	.st231{clip-path:url(#SVGID_458_);}
	.st232{clip-path:url(#SVGID_460_);}
	.st233{clip-path:url(#SVGID_462_);}
	.st234{clip-path:url(#SVGID_464_);}
	.st235{clip-path:url(#SVGID_466_);}
	.st236{clip-path:url(#SVGID_468_);}
	.st237{clip-path:url(#SVGID_470_);}
	.st238{clip-path:url(#SVGID_472_);}
	.st239{clip-path:url(#SVGID_474_);}
	.st240{clip-path:url(#SVGID_476_);}
	.st241{clip-path:url(#SVGID_478_);}
	.st242{clip-path:url(#SVGID_480_);}
	.st243{clip-path:url(#SVGID_482_);}
	.st244{clip-path:url(#SVGID_484_);}
	.st245{clip-path:url(#SVGID_486_);}
	.st246{clip-path:url(#SVGID_488_);}
	.st247{clip-path:url(#SVGID_490_);}
	.st248{clip-path:url(#SVGID_492_);}
	.st249{clip-path:url(#SVGID_494_);}
	.st250{clip-path:url(#SVGID_496_);}
	.st251{clip-path:url(#SVGID_498_);}
	.st252{clip-path:url(#SVGID_500_);}
	.st253{clip-path:url(#SVGID_502_);}
	.st254{clip-path:url(#SVGID_504_);}
	.st255{clip-path:url(#SVGID_506_);}
	.st256{clip-path:url(#SVGID_508_);}
	.st257{clip-path:url(#SVGID_510_);}
	.st258{clip-path:url(#SVGID_512_);}
	.st259{clip-path:url(#SVGID_514_);}
	.st260{clip-path:url(#SVGID_516_);}
	.st261{clip-path:url(#SVGID_518_);}
	.st262{clip-path:url(#SVGID_520_);}
	.st263{clip-path:url(#SVGID_522_);}
	.st264{clip-path:url(#SVGID_524_);}
	.st265{clip-path:url(#SVGID_526_);}
	.st266{clip-path:url(#SVGID_528_);}
	.st267{clip-path:url(#SVGID_530_);}
	.st268{clip-path:url(#SVGID_532_);}
	.st269{clip-path:url(#SVGID_534_);}
	.st270{clip-path:url(#SVGID_536_);}
	.st271{clip-path:url(#SVGID_538_);}
	.st272{clip-path:url(#SVGID_540_);}
	.st273{clip-path:url(#SVGID_542_);}
	.st274{clip-path:url(#SVGID_544_);}
	.st275{clip-path:url(#SVGID_546_);}
	.st276{clip-path:url(#SVGID_548_);}
	.st277{clip-path:url(#SVGID_550_);}
	.st278{clip-path:url(#SVGID_552_);}
	.st279{clip-path:url(#SVGID_554_);}
	.st280{clip-path:url(#SVGID_556_);}
	.st281{clip-path:url(#SVGID_558_);}
	.st282{clip-path:url(#SVGID_560_);}
	.st283{clip-path:url(#SVGID_562_);}
	.st284{clip-path:url(#SVGID_564_);}
	.st285{clip-path:url(#SVGID_566_);}
	.st286{clip-path:url(#SVGID_568_);}
	.st287{clip-path:url(#SVGID_570_);}
	.st288{clip-path:url(#SVGID_572_);}
	.st289{clip-path:url(#SVGID_574_);}
	.st290{clip-path:url(#SVGID_576_);}
	.st291{clip-path:url(#SVGID_578_);}
	.st292{clip-path:url(#SVGID_580_);}
	.st293{clip-path:url(#SVGID_582_);}
	.st294{clip-path:url(#SVGID_584_);}
	.st295{clip-path:url(#SVGID_586_);}
	.st296{clip-path:url(#SVGID_588_);}
	.st297{fill:#191919;}
	.st298{clip-path:url(#SVGID_592_);}
	.st299{clip-path:url(#SVGID_594_);}
	.st300{clip-path:url(#SVGID_596_);}
	.st301{clip-path:url(#SVGID_598_);}
	.st302{clip-path:url(#SVGID_600_);}
	.st303{clip-path:url(#SVGID_602_);}
	.st304{clip-path:url(#SVGID_604_);}
	.st305{clip-path:url(#SVGID_606_);}
	.st306{clip-path:url(#SVGID_608_);}
	.st307{clip-path:url(#SVGID_610_);}
	.st308{clip-path:url(#SVGID_612_);}
	.st309{clip-path:url(#SVGID_614_);}
	.st310{clip-path:url(#SVGID_616_);}
	.st311{clip-path:url(#SVGID_618_);}
	.st312{clip-path:url(#SVGID_620_);}
	.st313{clip-path:url(#SVGID_622_);}
	.st314{clip-path:url(#SVGID_624_);}
	.st315{clip-path:url(#SVGID_626_);}
	.st316{clip-path:url(#SVGID_628_);}
	.st317{clip-path:url(#SVGID_630_);}
	.st318{clip-path:url(#SVGID_632_);}
	.st319{clip-path:url(#SVGID_634_);}
	.st320{clip-path:url(#SVGID_636_);}
	.st321{clip-path:url(#SVGID_638_);}
	.st322{clip-path:url(#SVGID_640_);}
	.st323{clip-path:url(#SVGID_642_);}
	.st324{clip-path:url(#SVGID_644_);}
	.st325{clip-path:url(#SVGID_646_);}
	.st326{clip-path:url(#SVGID_648_);}
	.st327{clip-path:url(#SVGID_650_);}
	.st328{clip-path:url(#SVGID_652_);}
	.st329{clip-path:url(#SVGID_654_);}
	.st330{clip-path:url(#SVGID_656_);}
	.st331{clip-path:url(#SVGID_658_);}
	.st332{clip-path:url(#SVGID_660_);}
	.st333{clip-path:url(#SVGID_662_);}
	.st334{clip-path:url(#SVGID_664_);}
	.st335{clip-path:url(#SVGID_666_);}
	.st336{clip-path:url(#SVGID_668_);}
	.st337{clip-path:url(#SVGID_670_);}
	.st338{clip-path:url(#SVGID_672_);}
	.st339{clip-path:url(#SVGID_674_);}
	.st340{clip-path:url(#SVGID_676_);}
	.st341{clip-path:url(#SVGID_678_);}
	.st342{clip-path:url(#SVGID_680_);}
	.st343{clip-path:url(#SVGID_682_);}
	.st344{clip-path:url(#SVGID_684_);}
	.st345{clip-path:url(#SVGID_686_);}
	.st346{clip-path:url(#SVGID_688_);}
	.st347{clip-path:url(#SVGID_690_);}
	.st348{clip-path:url(#SVGID_692_);}
	.st349{clip-path:url(#SVGID_694_);}
	.st350{clip-path:url(#SVGID_700_);}
	.st351{clip-path:url(#SVGID_702_);}
	.st352{clip-path:url(#SVGID_706_);}
	.st353{clip-path:url(#SVGID_708_);}
	.st354{clip-path:url(#SVGID_710_);}
	.st355{clip-path:url(#SVGID_712_);}
	.st356{clip-path:url(#SVGID_714_);}
	.st357{clip-path:url(#SVGID_716_);}
	.st358{clip-path:url(#SVGID_718_);}
	.st359{clip-path:url(#SVGID_720_);}
	.st360{clip-path:url(#SVGID_722_);}
	.st361{clip-path:url(#SVGID_724_);}
	.st362{clip-path:url(#SVGID_726_);}
	.st363{clip-path:url(#SVGID_728_);}
	.st364{clip-path:url(#SVGID_730_);}
	.st365{clip-path:url(#SVGID_732_);}
	.st366{clip-path:url(#SVGID_734_);}
	.st367{clip-path:url(#SVGID_736_);}
	.st368{clip-path:url(#SVGID_738_);}
	.st369{clip-path:url(#SVGID_740_);}
	.st370{clip-path:url(#SVGID_742_);}
	.st371{clip-path:url(#SVGID_744_);}
	.st372{clip-path:url(#SVGID_746_);}
	.st373{clip-path:url(#SVGID_748_);}
	.st374{clip-path:url(#SVGID_750_);}
	.st375{clip-path:url(#SVGID_752_);}
	.st376{clip-path:url(#SVGID_754_);}
	.st377{clip-path:url(#SVGID_756_);}
	.st378{clip-path:url(#SVGID_758_);}
	.st379{clip-path:url(#SVGID_760_);}
	.st380{clip-path:url(#SVGID_762_);}
	.st381{clip-path:url(#SVGID_764_);}
	.st382{clip-path:url(#SVGID_766_);}
	.st383{clip-path:url(#SVGID_768_);}
	.st384{clip-path:url(#SVGID_770_);}
	.st385{clip-path:url(#SVGID_772_);}
	.st386{clip-path:url(#SVGID_774_);}
	.st387{clip-path:url(#SVGID_776_);}
	.st388{clip-path:url(#SVGID_778_);}
	.st389{clip-path:url(#SVGID_780_);}
	.st390{clip-path:url(#SVGID_782_);}
	.st391{clip-path:url(#SVGID_784_);}
	.st392{clip-path:url(#SVGID_786_);}
	.st393{clip-path:url(#SVGID_788_);}
	.st394{clip-path:url(#SVGID_790_);}
	.st395{clip-path:url(#SVGID_792_);}
	.st396{clip-path:url(#SVGID_794_);}
	.st397{clip-path:url(#SVGID_796_);}
	.st398{clip-path:url(#SVGID_798_);}
	.st399{clip-path:url(#SVGID_800_);}
	.st400{clip-path:url(#SVGID_802_);}
	.st401{clip-path:url(#SVGID_804_);}
	.st402{clip-path:url(#SVGID_806_);}
	.st403{clip-path:url(#SVGID_808_);}
	.st404{clip-path:url(#SVGID_810_);}
	.st405{clip-path:url(#SVGID_812_);}
	.st406{clip-path:url(#SVGID_814_);}
	.st407{clip-path:url(#SVGID_816_);}
	.st408{clip-path:url(#SVGID_818_);}
	.st409{clip-path:url(#SVGID_820_);}
	.st410{clip-path:url(#SVGID_822_);}
	.st411{clip-path:url(#SVGID_824_);}
	.st412{clip-path:url(#SVGID_826_);}
	.st413{clip-path:url(#SVGID_828_);}
	.st414{clip-path:url(#SVGID_830_);}
	.st415{clip-path:url(#SVGID_832_);}
	.st416{clip-path:url(#SVGID_834_);}
	.st417{clip-path:url(#SVGID_836_);}
	.st418{clip-path:url(#SVGID_838_);}
	.st419{clip-path:url(#SVGID_840_);}
	.st420{clip-path:url(#SVGID_842_);}
	.st421{clip-path:url(#SVGID_844_);}
	.st422{clip-path:url(#SVGID_846_);}
	.st423{clip-path:url(#SVGID_848_);}
	.st424{clip-path:url(#SVGID_850_);}
	.st425{clip-path:url(#SVGID_852_);}
	.st426{clip-path:url(#SVGID_854_);}
	.st427{clip-path:url(#SVGID_856_);}
	.st428{clip-path:url(#SVGID_858_);}
	.st429{clip-path:url(#SVGID_860_);}
	.st430{clip-path:url(#SVGID_862_);}
	.st431{clip-path:url(#SVGID_864_);}
	.st432{clip-path:url(#SVGID_866_);}
	.st433{clip-path:url(#SVGID_868_);}
	.st434{clip-path:url(#SVGID_870_);}
	.st435{clip-path:url(#SVGID_872_);}
	.st436{clip-path:url(#SVGID_874_);}
	.st437{clip-path:url(#SVGID_876_);}
	.st438{clip-path:url(#SVGID_878_);}
	.st439{clip-path:url(#SVGID_880_);}
	.st440{clip-path:url(#SVGID_882_);}
	.st441{clip-path:url(#SVGID_884_);}
	.st442{clip-path:url(#SVGID_886_);}
	.st443{clip-path:url(#SVGID_888_);}
	.st444{clip-path:url(#SVGID_890_);}
	.st445{clip-path:url(#SVGID_892_);}
	.st446{clip-path:url(#SVGID_894_);}
	.st447{clip-path:url(#SVGID_896_);}
	.st448{clip-path:url(#SVGID_898_);}
	.st449{clip-path:url(#SVGID_900_);}
	.st450{clip-path:url(#SVGID_902_);}
	.st451{clip-path:url(#SVGID_904_);}
	.st452{clip-path:url(#SVGID_906_);}
	.st453{clip-path:url(#SVGID_908_);}
	.st454{clip-path:url(#SVGID_910_);}
	.st455{clip-path:url(#SVGID_912_);}
	.st456{clip-path:url(#SVGID_914_);}
	.st457{clip-path:url(#SVGID_916_);fill:#E6E6E6;}
	.st458{clip-path:url(#SVGID_918_);}
	.st459{clip-path:url(#SVGID_920_);}
</style>
<g>
	<rect y="0" class="st0" width="186" height="186.8"/>
	<path class="st1" d="M112.6,129l-2.2,2.2c-1.7,1.7-4.2,2-6.3,1l1.1-2.2c1.1,0.6,2.5,0.4,3.4-0.5l2.2-2.2c1.1-1.1,1.1-3-0.1-4.2
		c-1.1-1.1-2.3-0.8-3.7-0.1c-1,0.6-2.1,1.4-3.2,2.2c-2.2,1.5-4.7,2.5-7.2-0.1c-2.1-2.1-2.2-5.6-0.1-7.8l2.2-2.2c1.7-1.7,4.2-2,6.2-1
		l-1.1,2.3c-1.1-0.6-2.5-0.4-3.4,0.5l-2.2,2.2c-1.1,1.1-1.1,3,0.1,4.2c1.1,1.1,2.3,0.8,3.7,0.1c1-0.6,2.1-1.4,3.2-2.2
		c2.2-1.5,4.7-2.5,7.2,0.1C114.7,123.4,114.8,126.8,112.6,129z M112.7,104.6l12.2,12.2l-1.8,1.8l-12.2-12.2l-4.1,4.1l-1.8-1.8
		l9.9-9.9l1.8,1.8L112.7,104.6z M137.2,94.5c2.7,2.7,2.7,7.1,0,9.9c-2.7,2.7-7.1,2.7-9.9,0l-9-9l1.8-1.8l9,9c1.7,1.7,4.6,1.8,6.3,0
		c1.8-1.8,1.7-4.6,0-6.3l-9-9l1.8-1.8L137.2,94.5z M151.5,80.2c2.7,2.7,2.7,7.1,0,9.9l-4.9,4.9l-13.9-13.9l4.9-4.9
		c2.7-2.7,7.1-2.8,9.9,0L151.5,80.2z M145.7,78c-1.7-1.7-4.6-1.8-6.3,0l-3.1,3.1l10.4,10.4l3.1-3.1c1.8-1.8,1.7-4.6,0-6.3L145.7,78z
		 M160.7,80.9L146.7,67l1.8-1.8l13.9,13.9L160.7,80.9z M171.9,59.8c2.7,2.7,2.7,7.1,0,9.9c-2.7,2.7-7.1,2.7-9.9,0l-4.1-4.1
		c-2.7-2.7-2.7-7.1,0-9.9c2.7-2.7,7.1-2.8,9.9,0L171.9,59.8z M166,57.6c-1.7-1.7-4.6-1.8-6.3,0c-1.7,1.7-1.7,4.6,0,6.3l4.1,4.1
		c1.7,1.7,4.6,1.8,6.3,0c1.8-1.8,1.7-4.6,0-6.3L166,57.6z M34.1,118.5l-8.8-3.4l-3.9,3.9l6.1,6.1l-1.8,1.8L11.8,113l6-6
		c2.2-2.2,5.6-2.1,7.8,0.1c1.6,1.6,2.1,3.9,1.3,6l9.2,3.5L34.1,118.5z M19.6,108.7l-4.3,4.3l4.3,4.3l4.3-4.3
		c1.2-1.2,1.1-3.1-0.1-4.2S20.8,107.5,19.6,108.7z M44.2,98.5c2.7,2.7,2.7,7.1,0,9.9c-2.7,2.7-7.1,2.7-9.9,0l-4.1-4.1
		c-2.7-2.7-2.7-7.1,0-9.9c2.7-2.7,7.1-2.8,9.9,0L44.2,98.5z M38.4,96.3c-1.7-1.7-4.6-1.8-6.3,0c-1.7,1.7-1.7,4.6,0,6.3l4.1,4.1
		c1.7,1.7,4.6,1.8,6.3,0c1.8-1.8,1.7-4.6,0-6.3L38.4,96.3z M53.1,99.5L39.2,85.5l9.9-9.9l1.8,1.8l-8.1,8.1l4.3,4.3l8.1-8.1l1.8,1.8
		l-8.1,8.1l4.3,4.3l8.1-8.1l1.8,1.8L53.1,99.5z M78.3,74.3L69,64.9l5.7,13l-1.6,1.6L60,73.9l9.4,9.4L67.6,85L53.6,71.1l1.7-1.7
		l16,6.8l-6.8-15.9l1.7-1.7l13.9,13.9L78.3,74.3z M25.6,15.1c-2.1-2.1-5.6-2.2-7.8-0.1l-6,6L25.7,35l1.8-1.8l-6.1-6.1l3.9-3.9
		l8.8,3.4l1.9-1.9l-9.2-3.5C27.6,19,27.1,16.6,25.6,15.1z M23.9,21.1l-4.3,4.3L15.3,21l4.3-4.3c1.2-1.2,3.1-1,4.2,0.1
		S25.1,19.9,23.9,21.1z M135.4,0L135.4,0c1.8,1.8,1.8,4.6,0,6.4c-1.7,1.7-4.6,1.7-6.3,0L122.7,0h-3.6l8.1,8.1c2.7,2.7,7.1,2.7,9.9,0
		c2.2-2.2,2.6-5.5,1.3-8.1H135.4z M116.7,4.3L115,2.5l-9.9,9.9l1.8,1.8l4.1-4.1l12.2,12.2l1.8-1.8L112.7,8.3L116.7,4.3z M57.1,0
		l-4,4l-4-4h-3.6l7.5,7.5L60.6,0H57.1z M40.1,2.5c-2.7-2.7-7.1-2.7-9.9,0c-2.7,2.7-2.7,7.1,0,9.9l4.1,4.1c2.7,2.7,7.1,2.7,9.9,0
		c2.7-2.7,2.7-7.2,0-9.9L40.1,2.5z M42.4,14.7c-1.7,1.7-4.6,1.7-6.3,0L32,10.6c-1.7-1.7-1.8-4.6,0-6.3c1.8-1.8,4.6-1.7,6.3,0
		l4.1,4.1C44.2,10.1,44.2,12.9,42.4,14.7z M105.3,24.9c-1.1,0.8-2.2,1.6-3.2,2.2c-1.3,0.8-2.6,1-3.7-0.1c-1.2-1.2-1.2-3.1-0.1-4.2
		l2.2-2.2c0.9-0.9,2.2-1.1,3.4-0.5l1.1-2.3c-2-1-4.6-0.7-6.2,1L96.5,21c-2.2,2.2-2.1,5.6,0.1,7.8c2.6,2.6,5,1.6,7.2,0.1
		c1.1-0.8,2.2-1.6,3.2-2.2c1.3-0.8,2.6-1,3.7,0.1c1.2,1.2,1.2,3.1,0.1,4.2l-2.2,2.2c-0.9,0.9-2.3,1.1-3.4,0.5l-1.1,2.2
		c2,1,4.6,0.7,6.3-1l2.2-2.2c2.1-2.1,2.1-5.6-0.1-7.8C110,22.4,107.5,23.4,105.3,24.9z M49.2,186.8l-0.4-0.4l8.1-8.1l-1.8-1.8
		l-8.1,8.1l-4.3-4.3l8.1-8.1l-1.8-1.8l-9.9,9.9l6.4,6.4H49.2z M162.4,169.7l-13.9-13.9l-1.8,1.8l13.9,13.9L162.4,169.7z M162,160.2
		c2.7,2.7,7.1,2.7,9.9,0c2.7-2.7,2.7-7.2,0-9.9l-4.1-4.1c-2.7-2.7-7.1-2.7-9.9,0c-2.7,2.7-2.7,7.1,0,9.9L162,160.2z M159.7,148.1
		c1.8-1.8,4.6-1.7,6.3,0l4.1,4.1c1.7,1.7,1.8,4.6,0,6.3c-1.7,1.7-4.6,1.7-6.3,0l-4.1-4.1C158,152.7,158,149.8,159.7,148.1z
		 M57.1,186.8h3.5l2.4-2.4l-1.8-1.8L57.1,186.8z M69.4,178.1l-9.4-9.4l13.1,5.7l1.6-1.6l-5.7-13l9.4,9.4l1.8-1.8l-13.9-13.9
		l-1.7,1.7l6.8,15.9l-16-6.8l-1.7,1.7l13.9,13.9L69.4,178.1z M138.4,186.8c-0.3-0.6-0.7-1.2-1.3-1.7l-9-9l-1.8,1.8l8.9,8.9H138.4z
		 M122.7,186.8l-2.6-2.6l-1.8,1.8l0.8,0.8H122.7z M151.5,180.6c2.7-2.7,2.7-7.2,0-9.9l-4.1-4.1c-2.7-2.7-7.1-2.7-9.9,0l-4.9,4.9
		l13.9,13.9L151.5,180.6z M139.3,168.5c1.8-1.8,4.6-1.7,6.3,0l4.1,4.1c1.7,1.7,1.8,4.6,0,6.3l-3.1,3.1l-10.4-10.4L139.3,168.5z"/>
</g>
</svg>
