<svg id="Layer_1" data-name="Layer 1" xmlns="http://www.w3.org/2000/svg" xmlns:xlink="http://www.w3.org/1999/xlink" viewBox="0 0 435.53 40"><defs><style>.cls-1{fill:none;}.cls-2{fill:#1a1a1a;}.cls-3{font-size:10px;font-family:NBGrotesk-SemBol, NB Grotesk;font-weight:700;}.cls-3,.cls-8{fill:#eee;}.cls-4{letter-spacing:-0.02em;}.cls-5{fill:url(#ROEM_PATROON_FINAL);}.cls-6{clip-path:url(#clip-path);}.cls-7{clip-path:url(#clip-path-2);}.cls-9{clip-path:url(#clip-path-3);}.cls-10{clip-path:url(#clip-path-4);}.cls-11{clip-path:url(#clip-path-5);}.cls-12{clip-path:url(#clip-path-6);}.cls-13{clip-path:url(#clip-path-7);}.cls-14{clip-path:url(#clip-path-8);}.cls-15{clip-path:url(#clip-path-9);}.cls-16{clip-path:url(#clip-path-10);}.cls-17{clip-path:url(#clip-path-11);}.cls-18{clip-path:url(#clip-path-12);}.cls-19{clip-path:url(#clip-path-13);}.cls-20{clip-path:url(#clip-path-14);}.cls-21{clip-path:url(#clip-path-15);}.cls-22{clip-path:url(#clip-path-16);}.cls-23{clip-path:url(#clip-path-17);}.cls-24{clip-path:url(#clip-path-18);}.cls-25{clip-path:url(#clip-path-19);}.cls-26{clip-path:url(#clip-path-20);}.cls-27{clip-path:url(#clip-path-21);}.cls-28{clip-path:url(#clip-path-22);}.cls-29{clip-path:url(#clip-path-23);}.cls-30{clip-path:url(#clip-path-24);}.cls-31{clip-path:url(#clip-path-25);}.cls-32{clip-path:url(#clip-path-26);}.cls-33{clip-path:url(#clip-path-27);}.cls-34{clip-path:url(#clip-path-28);}.cls-35{clip-path:url(#clip-path-29);}.cls-36{clip-path:url(#clip-path-30);}.cls-37{clip-path:url(#clip-path-31);}</style><pattern id="ROEM_PATROON_FINAL" data-name="ROEM PATROON FINAL" width="36.26" height="34.21" patternTransform="translate(-10.69 -14.06) rotate(45)" patternUnits="userSpaceOnUse" viewBox="0 0 36.26 34.21"><rect class="cls-1" width="36.26" height="34.21"/><polygon class="cls-2" points="45.33 0 45.33 34.21 27.2 34.21 27.2 0 45.33 0"/><text class="cls-3" transform="translate(39.5 30.35) rotate(-90)"><tspan class="cls-4">R</tspan><tspan x="6.38" y="0">OEM</tspan></text><polygon class="cls-2" points="27.2 0 27.2 34.21 9.07 34.21 9.07 0 27.2 0"/><text class="cls-3" transform="translate(21.37 30.35) rotate(-90)"><tspan class="cls-4">R</tspan><tspan x="6.38" y="0">OEM</tspan></text><polygon class="cls-2" points="9.07 0 9.07 34.21 -9.07 34.21 -9.07 0 9.07 0"/><text class="cls-3" transform="translate(3.24 30.35) rotate(-90)"><tspan class="cls-4">R</tspan><tspan x="6.38" y="0">OEM</tspan></text></pattern><clipPath id="clip-path"><rect class="cls-1" x="197.76" y="-197.76" width="40" height="435.53" transform="translate(197.76 237.76) rotate(-90)"/></clipPath><clipPath id="clip-path-2"><rect class="cls-1" x="419.39" y="31.56" width="34.21" height="36.26" transform="translate(92.71 323.2) rotate(-45)"/></clipPath><clipPath id="clip-path-3"><rect class="cls-1" x="417.94" y="-18.27" width="34.21" height="36.26" transform="translate(127.52 307.58) rotate(-45)"/></clipPath><clipPath id="clip-path-4"><rect class="cls-1" x="393.75" y="5.92" width="34.21" height="36.26" transform="translate(103.33 297.56) rotate(-45)"/></clipPath><clipPath id="clip-path-5"><rect class="cls-1" x="369.56" y="30.11" width="34.21" height="36.26" transform="translate(79.14 287.54) rotate(-45)"/></clipPath><clipPath id="clip-path-6"><rect class="cls-1" x="368.11" y="-19.73" width="34.21" height="36.26" transform="translate(113.95 271.92) rotate(-45)"/></clipPath><clipPath id="clip-path-7"><rect class="cls-1" x="343.92" y="4.47" width="34.21" height="36.26" transform="translate(89.76 261.9) rotate(-45)"/></clipPath><clipPath id="clip-path-8"><rect class="cls-1" x="319.72" y="28.66" width="34.21" height="36.26" transform="translate(65.57 251.88) rotate(-45)"/></clipPath><clipPath id="clip-path-9"><rect class="cls-1" x="318.27" y="-21.18" width="34.21" height="36.26" transform="translate(100.38 236.26) rotate(-45)"/></clipPath><clipPath id="clip-path-10"><rect class="cls-1" x="294.08" y="3.01" width="34.21" height="36.26" transform="translate(76.19 226.24) rotate(-45)"/></clipPath><clipPath id="clip-path-11"><rect class="cls-1" x="269.89" y="27.21" width="34.21" height="36.26" transform="translate(52 216.22) rotate(-45)"/></clipPath><clipPath id="clip-path-12"><rect class="cls-1" x="268.44" y="-22.63" width="34.21" height="36.26" transform="translate(86.81 200.59) rotate(-45)"/></clipPath><clipPath id="clip-path-13"><rect class="cls-1" x="244.25" y="1.56" width="34.21" height="36.26" transform="translate(62.62 190.57) rotate(-45)"/></clipPath><clipPath id="clip-path-14"><rect class="cls-1" x="220.06" y="25.75" width="34.21" height="36.26" transform="translate(38.43 180.55) rotate(-45)"/></clipPath><clipPath id="clip-path-15"><rect class="cls-1" x="218.61" y="-24.08" width="34.21" height="36.26" transform="translate(73.24 164.93) rotate(-45)"/></clipPath><clipPath id="clip-path-16"><rect class="cls-1" x="194.41" y="0.11" width="34.21" height="36.26" transform="translate(49.05 154.91) rotate(-45)"/></clipPath><clipPath id="clip-path-17"><rect class="cls-1" x="170.22" y="24.3" width="34.21" height="36.26" transform="translate(24.86 144.89) rotate(-45)"/></clipPath><clipPath id="clip-path-18"><rect class="cls-1" x="168.77" y="-25.53" width="34.21" height="36.26" transform="translate(59.67 129.27) rotate(-45)"/></clipPath><clipPath id="clip-path-19"><rect class="cls-1" x="144.58" y="-1.34" width="34.21" height="36.26" transform="translate(35.48 119.25) rotate(-45)"/></clipPath><clipPath id="clip-path-20"><rect class="cls-1" x="120.39" y="22.85" width="34.21" height="36.26" transform="translate(11.29 109.23) rotate(-45)"/></clipPath><clipPath id="clip-path-21"><rect class="cls-1" x="118.94" y="-26.98" width="34.21" height="36.26" transform="translate(46.1 93.61) rotate(-45)"/></clipPath><clipPath id="clip-path-22"><rect class="cls-1" x="94.75" y="-2.79" width="34.21" height="36.26" transform="translate(21.91 83.59) rotate(-45)"/></clipPath><clipPath id="clip-path-23"><rect class="cls-1" x="70.56" y="21.4" width="34.21" height="36.26" transform="translate(-2.28 73.57) rotate(-45)"/></clipPath><clipPath id="clip-path-24"><rect class="cls-1" x="46.37" y="45.59" width="34.21" height="36.26" transform="translate(-26.47 63.54) rotate(-45)"/></clipPath><clipPath id="clip-path-25"><rect class="cls-1" x="69.1" y="-28.43" width="34.21" height="36.26" transform="translate(32.53 57.94) rotate(-45)"/></clipPath><clipPath id="clip-path-26"><rect class="cls-1" x="44.91" y="-4.24" width="34.21" height="36.26" transform="translate(8.34 47.92) rotate(-45)"/></clipPath><clipPath id="clip-path-27"><rect class="cls-1" x="20.72" y="19.95" width="34.21" height="36.26" transform="translate(-15.85 37.9) rotate(-45)"/></clipPath><clipPath id="clip-path-28"><rect class="cls-1" x="-3.47" y="44.14" width="34.21" height="36.26" transform="translate(-40.04 27.88) rotate(-45)"/></clipPath><clipPath id="clip-path-29"><rect class="cls-1" x="19.27" y="-29.89" width="34.21" height="36.26" transform="translate(18.97 22.28) rotate(-45)"/></clipPath><clipPath id="clip-path-30"><rect class="cls-1" x="-4.92" y="-5.69" width="34.21" height="36.26" transform="translate(-5.23 12.26) rotate(-45)"/></clipPath><clipPath id="clip-path-31"><rect class="cls-1" x="-29.11" y="18.5" width="34.21" height="36.26" transform="translate(-29.42 2.24) rotate(-45)"/></clipPath></defs><title>roem-ribbon</title><polygon class="cls-5" points="-1847.69 -1154.93 332.59 1025.35 -1847.69 3205.63 -4027.97 1025.35 -1847.69 -1154.93"/><g class="cls-6"><g class="cls-7"><path class="cls-8" d="M423.33,38.27a2.49,2.49,0,0,1-3.53,3.53l-1.45-1.45a2.49,2.49,0,0,1,3.53-3.53Zm-2.09-.81A1.59,1.59,0,1,0,419,39.71l1.45,1.45a1.59,1.59,0,1,0,2.25-2.25Z"/><path class="cls-8" d="M426.16,39l-5-5,3.53-3.53.63.63L422.45,34,424,35.53l2.89-2.89.63.63-2.89,2.89,1.54,1.54,2.89-2.89.63.63Z"/><path class="cls-8" d="M434.62,30.5l-3.34-3.34,2,4.65-.58.58-4.66-2,3.34,3.34-.63.64-5-5,.61-.61,5.7,2.42-2.44-5.69.61-.61,5,5Z"/></g><g class="cls-9"><path class="cls-8" d="M431.57,7.91l-3.14-1.2L427,8.11l2.17,2.17-.64.64-5-5,2.16-2.16a2,2,0,0,1,2.77,0A2,2,0,0,1,429,6l3.29,1.27Zm-5.19-3.49-1.52,1.52,1.54,1.54L427.92,6a1.09,1.09,0,0,0-1.54-1.54Z"/><path class="cls-8" d="M434.7,1.26a2.49,2.49,0,0,1-3.53,3.53l-1.45-1.45a2.49,2.49,0,0,1,3.53-3.53ZM432.62.44a1.59,1.59,0,1,0-2.25,2.25l1.45,1.45a1.59,1.59,0,1,0,2.25-2.25Z"/><path class="cls-8" d="M437.52,2l-5-5,3.53-3.53.63.63L433.82-3l1.54,1.54,2.89-2.89.63.63L436-.85,437.53.69l2.89-2.89.63.63Z"/></g><g class="cls-10"><path class="cls-8" d="M423.33,38.27a2.49,2.49,0,0,1-3.53,3.53l-1.45-1.45a2.49,2.49,0,0,1,3.53-3.53Zm-2.09-.81A1.59,1.59,0,1,0,419,39.71l1.45,1.45a1.59,1.59,0,1,0,2.25-2.25Z"/><path class="cls-8" d="M426.16,39l-5-5,3.53-3.53.63.63L422.45,34,424,35.53l2.89-2.89.63.63-2.89,2.89,1.54,1.54,2.89-2.89.63.63Z"/><path class="cls-8" d="M434.62,30.5l-3.34-3.34,2,4.65-.58.58-4.66-2,3.34,3.34-.63.64-5-5,.61-.61,5.7,2.42-2.44-5.69.61-.61,5,5Z"/><path class="cls-8" d="M407.38,32.1l-3.14-1.2-1.4,1.4L405,34.47l-.64.64-5-5L401.56,28a2,2,0,0,1,2.77,0,2,2,0,0,1,.45,2.13l3.29,1.27Zm-5.19-3.49-1.52,1.52,1.54,1.54,1.52-1.52a1.09,1.09,0,0,0-1.54-1.54Z"/><path class="cls-8" d="M410.51,25.45A2.49,2.49,0,0,1,407,29l-1.45-1.45A2.49,2.49,0,0,1,409.06,24Zm-2.08-.81a1.59,1.59,0,1,0-2.25,2.25l1.45,1.45a1.59,1.59,0,1,0,2.25-2.25Z"/><path class="cls-8" d="M413.33,26.14l-5-5,3.53-3.53.63.63-2.89,2.89,1.54,1.54,2.89-2.89.63.63-2.89,2.89,1.54,1.54L416.23,22l.63.63Z"/><path class="cls-8" d="M421.8,17.68l-3.34-3.34,2,4.65-.58.58-4.66-2,3.34,3.34-.64.64-5-5,.61-.61,5.7,2.42-2.44-5.69.61-.61,5,5Z"/><path class="cls-8" d="M394.56,19.28l-3.14-1.2-1.4,1.4,2.17,2.17-.64.64-5-5,2.16-2.16a2,2,0,0,1,2.77,0,2,2,0,0,1,.45,2.13l3.29,1.27Zm-5.19-3.49-1.52,1.52,1.54,1.54,1.52-1.52a1.09,1.09,0,0,0-1.54-1.54Z"/><path class="cls-8" d="M397.69,12.63a2.49,2.49,0,0,1-3.53,3.53l-1.45-1.45a2.49,2.49,0,0,1,3.53-3.53Zm-2.09-.81a1.59,1.59,0,1,0-2.25,2.25l1.45,1.45a1.59,1.59,0,1,0,2.25-2.25Z"/><path class="cls-8" d="M400.51,13.32l-5-5,3.53-3.53.63.63-2.89,2.89,1.54,1.54L401.24,7l.63.63L399,10.52l1.54,1.54,2.89-2.89.63.63Z"/><path class="cls-8" d="M409,4.85l-3.34-3.34,2,4.65-.58.58-4.66-2,3.34,3.34-.63.64-5-5,.61-.61,5.7,2.42L404-.14l.61-.61,5,5Z"/></g><g class="cls-11"><path class="cls-8" d="M397.61,41.87l-3.34-3.34,2,4.65-.58.58-4.66-2,3.34,3.34-.64.64-5-5,.61-.61,5.7,2.42-2.44-5.69.61-.61,5,5Z"/><path class="cls-8" d="M370.37,43.47l-3.14-1.2-1.4,1.4L368,45.84l-.64.64-5-5,2.16-2.16a2,2,0,0,1,2.77,0,2,2,0,0,1,.45,2.13l3.29,1.27ZM365.18,40l-1.52,1.52L365.2,43l1.52-1.52A1.09,1.09,0,0,0,365.18,40Z"/><path class="cls-8" d="M373.5,36.82A2.49,2.49,0,0,1,370,40.34l-1.45-1.45a2.49,2.49,0,0,1,3.53-3.53ZM371.41,36a1.59,1.59,0,1,0-2.25,2.25l1.45,1.45a1.59,1.59,0,1,0,2.25-2.25Z"/><path class="cls-8" d="M376.32,37.51l-5-5L374.88,29l.63.63-2.89,2.89,1.54,1.54,2.89-2.89.63.63-2.89,2.89,1.54,1.54,2.89-2.89.63.63Z"/><path class="cls-8" d="M384.79,29l-3.34-3.34,2,4.65-.58.58-4.66-2,3.34,3.34-.64.64-5-5,.61-.61,5.7,2.42L379.85,24l.61-.61,5,5Z"/></g><g class="cls-12"><path class="cls-8" d="M394.56,19.28l-3.14-1.2-1.4,1.4,2.17,2.17-.64.64-5-5,2.16-2.16a2,2,0,0,1,2.77,0,2,2,0,0,1,.45,2.13l3.29,1.27Zm-5.19-3.49-1.52,1.52,1.54,1.54,1.52-1.52a1.09,1.09,0,0,0-1.54-1.54Z"/><path class="cls-8" d="M397.69,12.63a2.49,2.49,0,0,1-3.53,3.53l-1.45-1.45a2.49,2.49,0,0,1,3.53-3.53Zm-2.08-.81a1.59,1.59,0,1,0-2.25,2.25l1.45,1.45a1.59,1.59,0,1,0,2.25-2.25Z"/><path class="cls-8" d="M400.51,13.32l-5-5,3.53-3.53.63.63-2.89,2.89,1.54,1.54L401.24,7l.63.63L399,10.52l1.54,1.54,2.89-2.89.63.63Z"/><path class="cls-8" d="M409,4.86l-3.34-3.34,2,4.65-.58.58-4.66-2,3.34,3.34-.64.64-5-5,.61-.61,5.7,2.42L404-.14l.61-.61,5,5Z"/><path class="cls-8" d="M381.74,6.46l-3.14-1.2-1.4,1.4,2.17,2.17-.64.64-5-5,2.16-2.16a2,2,0,0,1,2.77,0,2,2,0,0,1,.45,2.13l3.29,1.27ZM376.55,3,375,4.49,376.57,6l1.52-1.52A1.09,1.09,0,0,0,376.55,3Z"/><path class="cls-8" d="M384.87-.2a2.49,2.49,0,0,1-3.53,3.53l-1.45-1.45a2.49,2.49,0,0,1,0-3.52,2.49,2.49,0,0,1,3.53,0ZM382.78-1a1.6,1.6,0,0,0-2.26,0,1.6,1.6,0,0,0,0,2.25L382,2.7A1.59,1.59,0,1,0,384.23.44Z"/><path class="cls-8" d="M387.69.5l-5-5L386.25-8l.63.63L384-4.47l1.54,1.54,2.89-2.89.63.63L386.16-2.3,387.7-.76l2.89-2.89.63.63Z"/></g><g class="cls-13"><path class="cls-8" d="M370.37,43.47l-3.14-1.2-1.4,1.4L368,45.84l-.64.64-5-5,2.16-2.16a2,2,0,0,1,2.77,0,2,2,0,0,1,.45,2.13l3.29,1.27ZM365.18,40l-1.52,1.52L365.2,43l1.52-1.52A1.09,1.09,0,0,0,365.18,40Z"/><path class="cls-8" d="M373.5,36.82A2.49,2.49,0,0,1,370,40.34l-1.45-1.45a2.49,2.49,0,0,1,3.53-3.53ZM371.41,36a1.59,1.59,0,1,0-2.25,2.25l1.45,1.45a1.59,1.59,0,1,0,2.25-2.25Z"/><path class="cls-8" d="M376.32,37.51l-5-5L374.88,29l.63.63-2.89,2.89,1.54,1.54,2.89-2.89.63.63-2.89,2.89,1.54,1.54,2.89-2.89.63.63Z"/><path class="cls-8" d="M384.79,29l-3.34-3.34,2,4.65-.58.58-4.66-2,3.34,3.34-.64.64-5-5,.61-.61,5.7,2.42L379.85,24l.61-.61,5,5Z"/><path class="cls-8" d="M357.55,30.65l-3.14-1.2-1.4,1.4L355.18,33l-.64.64-5-5,2.16-2.16a2,2,0,0,1,2.77,0,2,2,0,0,1,.45,2.13L358.24,30Zm-5.19-3.49-1.52,1.52,1.54,1.54,1.52-1.52a1.09,1.09,0,0,0-1.54-1.54Z"/><path class="cls-8" d="M360.68,24a2.49,2.49,0,0,1-3.53,3.53l-1.45-1.45a2.49,2.49,0,0,1,3.53-3.53Zm-2.08-.81a1.59,1.59,0,1,0-2.25,2.25l1.45,1.45A1.59,1.59,0,1,0,360,24.63Z"/><path class="cls-8" d="M363.5,24.69l-5-5,3.53-3.53.63.63-2.89,2.89,1.54,1.54,2.89-2.89.63.63L362,21.89l1.54,1.54,2.89-2.89.63.63Z"/><path class="cls-8" d="M372,16.22l-3.34-3.34,2,4.65-.58.58-4.66-2,3.34,3.34-.64.64-5-5,.61-.61,5.7,2.42L367,11.23l.61-.61,5,5Z"/><path class="cls-8" d="M344.72,17.83l-3.14-1.2-1.4,1.4,2.17,2.17-.64.64-5-5,2.16-2.16a2,2,0,0,1,2.77,0,2,2,0,0,1,.45,2.13l3.29,1.27Zm-5.19-3.49L338,15.86l1.54,1.54,1.52-1.52a1.09,1.09,0,0,0-1.54-1.54Z"/><path class="cls-8" d="M347.86,11.18a2.49,2.49,0,0,1-3.53,3.53l-1.45-1.45a2.49,2.49,0,0,1,3.53-3.53Zm-2.08-.81a1.59,1.59,0,1,0-2.25,2.25L345,14.07a1.59,1.59,0,1,0,2.25-2.25Z"/><path class="cls-8" d="M350.68,11.87l-5-5,3.53-3.53.63.63L347,6.9l1.54,1.54,2.89-2.89.63.63-2.89,2.89,1.54,1.54,2.89-2.89.63.63Z"/><path class="cls-8" d="M359.15,3.4,355.81.06l2,4.65-.58.58-4.66-2,3.34,3.34-.64.64-5-5,.61-.61,5.7,2.42-2.44-5.69.61-.61,5,5Z"/></g><g class="cls-14"><path class="cls-8" d="M347.78,40.42l-3.34-3.34,2,4.65-.58.58-4.66-2,3.34,3.34-.64.64-5-5,.61-.61,5.7,2.42-2.44-5.69.61-.61,5,5Z"/><path class="cls-8" d="M320.53,42l-3.14-1.2-1.4,1.4,2.17,2.17-.64.64-5-5,2.16-2.16a2,2,0,0,1,2.77,0,2,2,0,0,1,.45,2.13l3.29,1.27Zm-5.19-3.49L313.83,40l1.54,1.54,1.52-1.52a1.09,1.09,0,0,0-1.54-1.54Z"/><path class="cls-8" d="M323.67,35.37a2.49,2.49,0,0,1-3.53,3.53l-1.45-1.45a2.49,2.49,0,0,1,3.53-3.53Zm-2.08-.81a1.59,1.59,0,1,0-2.25,2.25l1.45,1.45A1.59,1.59,0,1,0,323,36Z"/><path class="cls-8" d="M326.49,36.06l-5-5L325,27.57l.63.63-2.89,2.89,1.54,1.54,2.89-2.89.63.63L325,33.26l1.54,1.54,2.89-2.89.63.63Z"/><path class="cls-8" d="M335,27.59l-3.34-3.34,2,4.65-.58.58-4.66-2,3.34,3.34-.64.64-5-5,.61-.61,5.7,2.42L330,22.6l.61-.61,5,5Z"/></g><g class="cls-15"><path class="cls-8" d="M344.72,17.83l-3.14-1.2-1.4,1.4,2.17,2.17-.64.64-5-5,2.16-2.16a2,2,0,0,1,2.77,0,2,2,0,0,1,.45,2.13l3.29,1.27Zm-5.19-3.49L338,15.86l1.54,1.54,1.52-1.52a1.09,1.09,0,0,0-1.54-1.54Z"/><path class="cls-8" d="M347.86,11.18a2.49,2.49,0,0,1-3.53,3.53l-1.45-1.45a2.49,2.49,0,0,1,3.53-3.53Zm-2.08-.81a1.59,1.59,0,1,0-2.25,2.25L345,14.07a1.59,1.59,0,1,0,2.25-2.25Z"/><path class="cls-8" d="M350.68,11.87l-5-5,3.53-3.53.63.63L347,6.9l1.54,1.54,2.89-2.89.63.63-2.89,2.89,1.54,1.54,2.89-2.89.63.63Z"/><path class="cls-8" d="M359.15,3.4,355.81.06l2,4.65-.58.58-4.66-2,3.34,3.34-.64.64-5-5,.61-.61,5.7,2.42-2.44-5.69.61-.61,5,5Z"/><path class="cls-8" d="M331.9,5l-3.14-1.2-1.4,1.4,2.17,2.17L328.9,8l-5-5L326.09.89a2,2,0,0,1,2.77,0A2,2,0,0,1,329.31,3l3.29,1.27Zm-5.19-3.49L325.2,3l1.54,1.54,1.52-1.52a1.06,1.06,0,0,0,0-1.51A1.06,1.06,0,0,0,326.72,1.52Z"/><path class="cls-8" d="M335-1.65a2.5,2.5,0,0,1,0,3.53,2.5,2.5,0,0,1-3.52,0L330.06.43a2.49,2.49,0,0,1,0-3.52,2.49,2.49,0,0,1,3.53,0ZM333-2.46a1.6,1.6,0,0,0-2.26,0,1.6,1.6,0,0,0,0,2.25l1.45,1.45a1.6,1.6,0,0,0,2.25,0,1.6,1.6,0,0,0,0-2.26Z"/></g><g class="cls-16"><path class="cls-8" d="M320.53,42l-3.14-1.2-1.4,1.4,2.17,2.17-.64.64-5-5,2.16-2.16a2,2,0,0,1,2.77,0,2,2,0,0,1,.45,2.13l3.29,1.27Zm-5.19-3.49L313.83,40l1.54,1.54,1.52-1.52a1.09,1.09,0,0,0-1.54-1.54Z"/><path class="cls-8" d="M323.67,35.37a2.49,2.49,0,0,1-3.53,3.53l-1.45-1.45a2.49,2.49,0,0,1,3.53-3.53Zm-2.08-.81a1.59,1.59,0,1,0-2.25,2.25l1.45,1.45A1.59,1.59,0,1,0,323,36Z"/><path class="cls-8" d="M326.49,36.06l-5-5L325,27.57l.63.63-2.89,2.89,1.54,1.54,2.89-2.89.63.63L325,33.26l1.54,1.54,2.89-2.89.63.63Z"/><path class="cls-8" d="M335,27.59l-3.34-3.34,2,4.65-.58.58-4.66-2,3.34,3.34-.64.64-5-5,.61-.61,5.7,2.42L330,22.6l.61-.61,5,5Z"/><path class="cls-8" d="M307.71,29.2,304.57,28l-1.4,1.4,2.17,2.17-.64.64-5-5,2.16-2.16a2,2,0,0,1,2.77,0,2,2,0,0,1,.45,2.13l3.29,1.27Zm-5.19-3.49L301,27.23l1.54,1.54,1.52-1.52a1.09,1.09,0,0,0-1.54-1.54Z"/><path class="cls-8" d="M310.84,22.54a2.49,2.49,0,0,1-3.53,3.53l-1.45-1.45a2.49,2.49,0,0,1,3.53-3.53Zm-2.08-.81A1.59,1.59,0,1,0,306.5,24L308,25.44a1.59,1.59,0,1,0,2.25-2.25Z"/><path class="cls-8" d="M313.67,23.24l-5-5,3.53-3.53.63.63L310,18.27l1.54,1.54,2.89-2.89.63.63-2.89,2.89L313.67,22l2.89-2.89.63.63Z"/><path class="cls-8" d="M322.14,14.77l-3.34-3.34,2,4.65-.58.58-4.66-2L318.93,18l-.64.64-5-5,.61-.61,5.7,2.42L317.2,9.78l.61-.61,5,5Z"/><path class="cls-8" d="M294.89,16.38l-3.14-1.2-1.4,1.4,2.17,2.17-.64.64-5-5,2.16-2.16a2,2,0,0,1,2.77,0,2,2,0,0,1,.45,2.13l3.29,1.27Zm-5.19-3.49-1.52,1.52,1.54,1.54,1.52-1.52a1.09,1.09,0,0,0-1.54-1.54Z"/><path class="cls-8" d="M298,9.72a2.49,2.49,0,0,1-3.53,3.53L293,11.8a2.49,2.49,0,0,1,3.53-3.53Zm-2.08-.81a1.59,1.59,0,1,0-2.25,2.25l1.45,1.45a1.59,1.59,0,1,0,2.25-2.25Z"/><path class="cls-8" d="M300.85,10.42l-5-5,3.53-3.53.63.63-2.89,2.89L298.68,7l2.89-2.89.63.63-2.89,2.89,1.54,1.54,2.89-2.89.63.63Z"/><path class="cls-8" d="M309.31,2,306-1.39l2,4.65-.58.58-4.66-2,3.34,3.34-.64.64-5-5,.61-.61,5.7,2.42L304.37-3l.61-.61,5,5Z"/></g><g class="cls-17"><path class="cls-8" d="M289.47,47.43l-5-5L288,38.94l.63.63-2.89,2.89L287.31,44l2.89-2.89.63.63-2.89,2.89,1.54,1.54,2.89-2.89.63.63Z"/><path class="cls-8" d="M297.94,39l-3.34-3.34,2,4.65-.58.58-4.66-2,3.34,3.34-.64.64-5-5,.61-.61,5.7,2.42L293,34l.61-.61,5,5Z"/><path class="cls-8" d="M270.7,40.57l-3.14-1.2-1.4,1.4,2.17,2.17-.64.64-5-5,2.16-2.16a2,2,0,0,1,2.77,0,2,2,0,0,1,.45,2.13l3.29,1.27Zm-5.19-3.49L264,38.6l1.54,1.54,1.52-1.52a1.09,1.09,0,0,0-1.54-1.54Z"/><path class="cls-8" d="M273.83,33.91a2.49,2.49,0,0,1-3.53,3.53L268.86,36a2.49,2.49,0,0,1,3.53-3.53Zm-2.08-.81a1.59,1.59,0,1,0-2.26,2.25l1.45,1.45a1.59,1.59,0,1,0,2.25-2.25Z"/><path class="cls-8" d="M276.65,34.61l-5-5,3.53-3.53.63.63L273,29.64l1.54,1.54,2.89-2.89.63.63-2.89,2.89,1.54,1.54,2.89-2.89.63.63Z"/><path class="cls-8" d="M285.12,26.14l-3.34-3.34,2,4.65-.58.58-4.66-2,3.34,3.34-.64.64-5-5,.61-.61,5.7,2.42-2.44-5.69.61-.61,5,5Z"/></g><g class="cls-18"><path class="cls-8" d="M294.89,16.38l-3.14-1.2-1.4,1.4,2.17,2.17-.64.64-5-5,2.16-2.16a2,2,0,0,1,2.77,0,2,2,0,0,1,.45,2.13l3.29,1.27Zm-5.19-3.49-1.52,1.52,1.54,1.54,1.52-1.52a1.09,1.09,0,0,0-1.54-1.54Z"/><path class="cls-8" d="M298,9.72a2.49,2.49,0,0,1-3.53,3.53L293,11.8a2.49,2.49,0,0,1,3.53-3.53Zm-2.08-.81a1.59,1.59,0,1,0-2.25,2.25l1.45,1.45a1.59,1.59,0,1,0,2.25-2.25Z"/><path class="cls-8" d="M300.85,10.42l-5-5,3.53-3.53.63.63-2.89,2.89L298.68,7l2.89-2.89.63.63-2.89,2.89,1.54,1.54,2.89-2.89.63.63Z"/><path class="cls-8" d="M309.31,2,306-1.39l2,4.65-.58.58-4.66-2,3.34,3.34-.64.64-5-5,.61-.61,5.7,2.42L304.37-3l.61-.61,5,5Z"/><path class="cls-8" d="M282.07,3.55l-3.14-1.2-1.4,1.4,2.17,2.17-.64.64-5-5,2.16-2.16a2,2,0,0,1,2.77,0,2,2,0,0,1,.45,2.13l3.29,1.27ZM276.88.06l-1.52,1.52,1.54,1.54,1.52-1.52a1.06,1.06,0,0,0,0-1.51A1.06,1.06,0,0,0,276.88.06Z"/><path class="cls-8" d="M285.2-3.1a2.5,2.5,0,0,1,0,3.53,2.5,2.5,0,0,1-3.52,0L280.23-1a2.49,2.49,0,0,1,0-3.52,2.49,2.49,0,0,1,3.53,0Zm-2.08-.81a1.6,1.6,0,0,0-2.26,0,1.6,1.6,0,0,0,0,2.25l1.45,1.45a1.6,1.6,0,0,0,2.25,0,1.6,1.6,0,0,0,0-2.26Z"/></g><g class="cls-19"><path class="cls-8" d="M270.7,40.57l-3.14-1.2-1.4,1.4,2.17,2.17-.64.64-5-5,2.16-2.16a2,2,0,0,1,2.77,0,2,2,0,0,1,.45,2.13l3.29,1.27Zm-5.19-3.49L264,38.6l1.54,1.54,1.52-1.52a1.09,1.09,0,0,0-1.54-1.54Z"/><path class="cls-8" d="M273.83,33.91a2.49,2.49,0,0,1-3.53,3.53L268.86,36a2.49,2.49,0,0,1,3.53-3.53Zm-2.08-.81a1.59,1.59,0,1,0-2.25,2.25l1.45,1.45a1.59,1.59,0,1,0,2.25-2.25Z"/><path class="cls-8" d="M276.65,34.61l-5-5,3.53-3.53.63.63L273,29.64l1.54,1.54,2.89-2.89.63.63-2.89,2.89,1.54,1.54,2.89-2.89.63.63Z"/><path class="cls-8" d="M285.12,26.14l-3.34-3.34,2,4.65-.58.58-4.66-2,3.34,3.34-.64.64-5-5,.61-.61,5.7,2.42-2.44-5.69.61-.61,5,5Z"/><path class="cls-8" d="M257.88,27.75l-3.14-1.2-1.4,1.4,2.17,2.17-.64.64-5-5,2.16-2.16a2,2,0,0,1,2.77,0,2,2,0,0,1,.45,2.13l3.29,1.27Zm-5.19-3.49-1.52,1.52,1.54,1.54,1.52-1.52a1.09,1.09,0,0,0-1.54-1.54Z"/><path class="cls-8" d="M261,21.09a2.49,2.49,0,0,1-3.53,3.53L256,23.17a2.49,2.49,0,0,1,3.53-3.53Zm-2.08-.81a1.59,1.59,0,1,0-2.25,2.25L258.12,24a1.59,1.59,0,1,0,2.25-2.25Z"/><path class="cls-8" d="M263.83,21.79l-5-5,3.53-3.53.63.63-2.89,2.89,1.54,1.54,2.89-2.89.63.63L262.3,19l1.54,1.54,2.89-2.89.63.63Z"/><path class="cls-8" d="M272.3,13.32,269,10l2,4.65-.58.58-4.66-2,3.34,3.34-.64.64-5-5,.61-.61L269.8,14l-2.44-5.69.61-.61,5,5Z"/><path class="cls-8" d="M245.06,14.92l-3.14-1.2-1.4,1.4,2.17,2.17-.64.64-5-5,2.16-2.16a2,2,0,0,1,2.77,0,2,2,0,0,1,.45,2.13l3.29,1.27Zm-5.19-3.49L238.35,13l1.54,1.54L241.41,13a1.09,1.09,0,0,0-1.54-1.54Z"/><path class="cls-8" d="M248.19,8.27a2.49,2.49,0,0,1-3.53,3.53l-1.45-1.45a2.49,2.49,0,0,1,3.53-3.53Zm-2.08-.81a1.59,1.59,0,1,0-2.25,2.25l1.45,1.45a1.59,1.59,0,1,0,2.25-2.25Z"/><path class="cls-8" d="M251,9l-5-5L249.57.47l.63.63L247.31,4l1.54,1.54,2.89-2.89.63.63-2.89,2.89L251,7.7l2.89-2.89.63.63Z"/><path class="cls-8" d="M259.48.5l-3.34-3.34,2,4.65-.58.58-4.66-2,3.34,3.34-.64.64-5-5,.61-.61L257,1.19,254.54-4.5l.61-.61,5,5Z"/></g><g class="cls-20"><path class="cls-8" d="M239.64,46l-5-5,3.53-3.53.63.63L235.94,41l1.54,1.54,2.89-2.89.63.63-2.89,2.89,1.54,1.54,2.89-2.89.63.63Z"/><path class="cls-8" d="M248.11,37.51l-3.34-3.34,2,4.65-.58.58-4.66-2,3.34,3.34-.64.64-5-5,.61-.61,5.7,2.42-2.44-5.69.61-.61,5,5Z"/><path class="cls-8" d="M220.87,39.12l-3.14-1.2-1.4,1.4,2.17,2.17-.64.64-5-5L215,35a2,2,0,0,1,2.77,0,2,2,0,0,1,.45,2.13l3.29,1.27Zm-5.19-3.49-1.52,1.52,1.54,1.54,1.52-1.52a1.09,1.09,0,0,0-1.54-1.54Z"/><path class="cls-8" d="M224,32.46A2.49,2.49,0,0,1,220.47,36L219,34.54A2.49,2.49,0,0,1,222.55,31Zm-2.08-.81a1.59,1.59,0,1,0-2.25,2.25l1.45,1.45a1.59,1.59,0,1,0,2.25-2.25Z"/><path class="cls-8" d="M226.82,33.16l-5-5,3.53-3.53.63.63-2.89,2.89,1.54,1.54,2.89-2.89.63.63-2.89,2.89,1.54,1.54L229.72,29l.63.63Z"/><path class="cls-8" d="M235.29,24.69l-3.34-3.34L234,26l-.58.58-4.66-2,3.34,3.34-.64.64-5-5,.61-.61,5.7,2.42-2.44-5.69.61-.61,5,5Z"/></g><g class="cls-21"><path class="cls-8" d="M245.06,14.92l-3.14-1.2-1.4,1.4,2.17,2.17-.64.64-5-5,2.16-2.16a2,2,0,0,1,2.77,0,2,2,0,0,1,.45,2.13l3.29,1.27Zm-5.19-3.49L238.35,13l1.54,1.54L241.41,13a1.09,1.09,0,0,0-1.54-1.54Z"/><path class="cls-8" d="M248.19,8.27a2.49,2.49,0,0,1-3.53,3.53l-1.45-1.45a2.49,2.49,0,0,1,3.53-3.53Zm-2.08-.81a1.59,1.59,0,1,0-2.25,2.25l1.45,1.45a1.59,1.59,0,1,0,2.25-2.25Z"/><path class="cls-8" d="M251,9l-5-5L249.57.47l.63.63L247.31,4l1.54,1.54,2.89-2.89.63.63-2.89,2.89L251,7.7l2.89-2.89.63.63Z"/><path class="cls-8" d="M259.48.5l-3.34-3.34,2,4.65-.58.58-4.66-2,3.34,3.34-.64.64-5-5,.61-.61L257,1.19,254.54-4.5l.61-.61,5,5Z"/><path class="cls-8" d="M232.24,2.1,229.1.9l-1.4,1.4,2.17,2.17-.64.64-5-5L226.42-2a2,2,0,0,1,2.77,0,2,2,0,0,1,.45,2.13l3.29,1.27ZM227-1.39,225.53.13l1.54,1.54L228.59.15a1.06,1.06,0,0,0,0-1.51A1.06,1.06,0,0,0,227-1.39Z"/></g><g class="cls-22"><path class="cls-8" d="M220.87,39.12l-3.14-1.2-1.4,1.4,2.17,2.17-.64.64-5-5L215,35a2,2,0,0,1,2.77,0,2,2,0,0,1,.45,2.13l3.29,1.27Zm-5.19-3.49-1.52,1.52,1.54,1.54,1.52-1.52a1.09,1.09,0,0,0-1.54-1.54Z"/><path class="cls-8" d="M224,32.46A2.49,2.49,0,0,1,220.47,36L219,34.54A2.49,2.49,0,0,1,222.55,31Zm-2.08-.81a1.59,1.59,0,1,0-2.25,2.25l1.45,1.45a1.59,1.59,0,1,0,2.25-2.25Z"/><path class="cls-8" d="M226.82,33.16l-5-5,3.53-3.53.63.63-2.89,2.89,1.54,1.54,2.89-2.89.63.63-2.89,2.89,1.54,1.54L229.72,29l.63.63Z"/><path class="cls-8" d="M235.29,24.69l-3.34-3.34L234,26l-.58.58-4.66-2,3.34,3.34-.64.64-5-5,.61-.61,5.7,2.42-2.44-5.69.61-.61,5,5Z"/><path class="cls-8" d="M208,26.29l-3.14-1.2-1.4,1.4,2.17,2.17-.64.64-5-5,2.16-2.16a2,2,0,0,1,2.77,0,2,2,0,0,1,.45,2.13l3.29,1.27Zm-5.19-3.49-1.52,1.52,1.54,1.54,1.52-1.52a1.09,1.09,0,0,0-1.54-1.54Z"/><path class="cls-8" d="M211.18,19.64a2.49,2.49,0,0,1-3.53,3.53l-1.45-1.45a2.49,2.49,0,0,1,3.53-3.53Zm-2.08-.81a1.59,1.59,0,1,0-2.25,2.25l1.45,1.45a1.59,1.59,0,1,0,2.25-2.25Z"/><path class="cls-8" d="M214,20.34l-5-5,3.53-3.53.63.63-2.89,2.89,1.54,1.54L214.73,14l.63.63-2.89,2.89L214,19.07l2.89-2.89.63.63Z"/><path class="cls-8" d="M222.47,11.87l-3.34-3.34,2,4.65-.58.58-4.66-2,3.34,3.34-.64.64-5-5,.61-.61,5.7,2.42-2.44-5.69.61-.61,5,5Z"/><path class="cls-8" d="M195.22,13.47l-3.14-1.2-1.4,1.4,2.17,2.17-.64.64-5-5,2.16-2.16a2,2,0,0,1,2.77,0,2,2,0,0,1,.45,2.13l3.29,1.27ZM190,10l-1.52,1.52L190.06,13l1.52-1.52A1.09,1.09,0,0,0,190,10Z"/><path class="cls-8" d="M198.36,6.82a2.49,2.49,0,0,1-3.53,3.53L193.38,8.9a2.49,2.49,0,0,1,3.53-3.53ZM196.27,6A1.59,1.59,0,1,0,194,8.26l1.45,1.45a1.59,1.59,0,1,0,2.25-2.25Z"/><path class="cls-8" d="M201.18,7.52l-5-5L199.74-1l.63.63-2.89,2.89L199,4.08l2.89-2.89.63.63-2.89,2.89,1.54,1.54,2.89-2.89.63.63Z"/><path class="cls-8" d="M209.65-1,206.3-4.29l2,4.65-.58.58-4.66-2,3.34,3.34-.64.64-5-5,.61-.61,5.7,2.42-2.44-5.69.61-.61,5,5Z"/></g><g class="cls-23"><path class="cls-8" d="M189.81,44.53l-5-5L188.37,36l.63.63-2.89,2.89,1.54,1.54,2.89-2.89.63.63-2.89,2.89,1.54,1.54,2.89-2.89.63.63Z"/><path class="cls-8" d="M198.28,36.06l-3.34-3.34,2,4.65-.58.58-4.66-2,3.34,3.34-.64.64-5-5,.61-.61,5.7,2.42-2.44-5.69.61-.61,5,5Z"/><path class="cls-8" d="M171,37.66l-3.14-1.2-1.4,1.4L168.66,40l-.64.64-5-5,2.16-2.16a2,2,0,0,1,2.77,0,2,2,0,0,1,.45,2.13L171.72,37Zm-5.19-3.49-1.52,1.52,1.54,1.54,1.52-1.52a1.09,1.09,0,0,0-1.54-1.54Z"/><path class="cls-8" d="M174.16,31a2.49,2.49,0,0,1-3.53,3.53l-1.45-1.45a2.49,2.49,0,0,1,3.53-3.53Zm-2.08-.81a1.59,1.59,0,1,0-2.25,2.25l1.45,1.45a1.59,1.59,0,1,0,2.25-2.25Z"/><path class="cls-8" d="M177,31.71l-5-5,3.53-3.53.63.63-2.89,2.89,1.54,1.54,2.89-2.89.63.63-2.89,2.89L177,30.44l2.89-2.89.63.63Z"/><path class="cls-8" d="M185.46,23.24l-3.34-3.34,2,4.65-.58.58-4.66-2,3.34,3.34-.64.64-5-5,.61-.61,5.7,2.42-2.44-5.69.61-.61,5,5Z"/></g><g class="cls-24"><path class="cls-8" d="M195.22,13.47l-3.14-1.2-1.4,1.4,2.17,2.17-.64.64-5-5,2.16-2.16a2,2,0,0,1,2.77,0,2,2,0,0,1,.45,2.13l3.29,1.27ZM190,10l-1.52,1.52L190.06,13l1.52-1.52A1.09,1.09,0,0,0,190,10Z"/><path class="cls-8" d="M198.36,6.82a2.49,2.49,0,0,1-3.53,3.53L193.38,8.9a2.49,2.49,0,0,1,3.53-3.53ZM196.27,6A1.59,1.59,0,1,0,194,8.26l1.45,1.45a1.59,1.59,0,1,0,2.25-2.25Z"/><path class="cls-8" d="M201.18,7.52l-5-5L199.74-1l.63.63-2.89,2.89L199,4.08l2.89-2.89.63.63-2.89,2.89,1.54,1.54,2.89-2.89.63.63Z"/><path class="cls-8" d="M209.65-1,206.3-4.29l2,4.65-.58.58-4.66-2,3.34,3.34-.64.64-5-5,.61-.61,5.7,2.42-2.44-5.69.61-.61,5,5Z"/><path class="cls-8" d="M182.4.65l-3.14-1.2-1.4,1.4L180,3l-.64.64-5-5,2.16-2.16a2,2,0,0,1,2.77,0,2,2,0,0,1,.45,2.13L183.09,0Zm-5.19-3.49-1.52,1.52L177.24.22l1.52-1.52a1.06,1.06,0,0,0,0-1.51A1.06,1.06,0,0,0,177.21-2.84Z"/></g><g class="cls-25"><path class="cls-8" d="M171,37.66l-3.14-1.2-1.4,1.4L168.66,40l-.64.64-5-5,2.16-2.16a2,2,0,0,1,2.77,0,2,2,0,0,1,.45,2.13L171.72,37Zm-5.19-3.49-1.52,1.52,1.54,1.54,1.52-1.52a1.09,1.09,0,0,0-1.54-1.54Z"/><path class="cls-8" d="M174.16,31a2.49,2.49,0,0,1-3.53,3.53l-1.45-1.45a2.49,2.49,0,0,1,3.53-3.53Zm-2.08-.81a1.59,1.59,0,1,0-2.25,2.25l1.45,1.45a1.59,1.59,0,1,0,2.25-2.25Z"/><path class="cls-8" d="M177,31.71l-5-5,3.53-3.53.63.63-2.89,2.89,1.54,1.54,2.89-2.89.63.63-2.89,2.89L177,30.44l2.89-2.89.63.63Z"/><path class="cls-8" d="M185.46,23.24l-3.34-3.34,2,4.65-.58.58-4.66-2,3.34,3.34-.64.64-5-5,.61-.61,5.7,2.42-2.44-5.69.61-.61,5,5Z"/><path class="cls-8" d="M158.21,24.84l-3.14-1.2-1.4,1.4,2.17,2.17-.64.64-5-5,2.16-2.16a2,2,0,0,1,2.77,0,2,2,0,0,1,.45,2.13l3.29,1.27ZM153,21.35l-1.52,1.52L153,24.41l1.52-1.52A1.09,1.09,0,0,0,153,21.35Z"/><path class="cls-8" d="M161.34,18.19a2.49,2.49,0,0,1-3.53,3.53l-1.45-1.45a2.49,2.49,0,0,1,3.53-3.53Zm-2.08-.81A1.59,1.59,0,1,0,157,19.63l1.45,1.45a1.59,1.59,0,1,0,2.25-2.25Z"/><path class="cls-8" d="M164.17,18.89l-5-5,3.53-3.53.63.63-2.89,2.89L162,15.45l2.89-2.89.63.63-2.89,2.89,1.54,1.54,2.89-2.89.63.63Z"/><path class="cls-8" d="M172.63,10.42l-3.34-3.34,2,4.65-.58.58-4.66-2,3.34,3.34-.64.64-5-5,.61-.61,5.7,2.42-2.44-5.69.61-.61,5,5Z"/><path class="cls-8" d="M145.39,12l-3.14-1.2-1.4,1.4L143,14.39l-.64.64-5-5,2.16-2.16a2,2,0,0,1,2.77,0,2,2,0,0,1,.45,2.13l3.29,1.27ZM140.2,8.53l-1.52,1.52,1.54,1.54,1.52-1.52a1.09,1.09,0,0,0-1.54-1.54Z"/><path class="cls-8" d="M148.52,5.37A2.49,2.49,0,0,1,145,8.9l-1.45-1.45a2.49,2.49,0,0,1,3.53-3.53Zm-2.08-.81a1.59,1.59,0,1,0-2.25,2.25l1.45,1.45A1.59,1.59,0,1,0,147.89,6Z"/><path class="cls-8" d="M151.34,6.07l-5-5,3.53-3.53.63.63-2.89,2.89,1.54,1.54,2.89-2.89.63.63-2.89,2.89,1.54,1.54,2.89-2.89.63.63Z"/><path class="cls-8" d="M159.81-2.4l-3.34-3.34,2,4.65-.58.58-4.66-2L156.6.81l-.64.64-5-5,.61-.61,5.7,2.42L154.87-7.4l.61-.61,5,5Z"/></g><g class="cls-26"><path class="cls-8" d="M140,43.08l-5-5,3.53-3.53.63.63-2.89,2.89,1.54,1.54,2.89-2.89.63.63-2.89,2.89L140,41.81l2.89-2.89.63.63Z"/><path class="cls-8" d="M148.44,34.61l-3.34-3.34,2,4.65-.58.58-4.66-2,3.34,3.34-.64.64-5-5,.61-.61,5.7,2.42-2.44-5.69.61-.61,5,5Z"/><path class="cls-8" d="M121.2,36.21,118.06,35l-1.4,1.4,2.17,2.17-.64.64-5-5,2.16-2.16a2,2,0,0,1,2.77,0,2,2,0,0,1,.45,2.13l3.29,1.27ZM116,32.72l-1.52,1.52L116,35.78l1.52-1.52A1.09,1.09,0,0,0,116,32.72Z"/><path class="cls-8" d="M124.33,29.56a2.49,2.49,0,0,1-3.53,3.53l-1.45-1.45a2.49,2.49,0,0,1,3.53-3.53Zm-2.09-.81A1.59,1.59,0,1,0,120,31l1.45,1.45a1.59,1.59,0,1,0,2.25-2.25Z"/><path class="cls-8" d="M127.15,30.26l-5-5,3.53-3.53.63.63-2.89,2.89L125,26.82l2.89-2.89.63.63-2.89,2.89L127.16,29l2.89-2.89.63.63Z"/><path class="cls-8" d="M135.62,21.79l-3.34-3.34,2,4.65-.58.58-4.66-2L132.41,25l-.63.64-5-5,.61-.61,5.7,2.42-2.44-5.69.61-.61,5,5Z"/></g><g class="cls-27"><path class="cls-8" d="M145.39,12l-3.14-1.2-1.4,1.4L143,14.39l-.64.64-5-5,2.16-2.16a2,2,0,0,1,2.77,0,2,2,0,0,1,.45,2.13l3.29,1.27ZM140.2,8.53l-1.52,1.52,1.54,1.54,1.52-1.52a1.09,1.09,0,0,0-1.54-1.54Z"/><path class="cls-8" d="M148.52,5.37A2.49,2.49,0,0,1,145,8.9l-1.45-1.45a2.49,2.49,0,0,1,3.53-3.53Zm-2.09-.81a1.59,1.59,0,1,0-2.25,2.25l1.45,1.45A1.59,1.59,0,1,0,147.89,6Z"/><path class="cls-8" d="M151.35,6.07l-5-5,3.53-3.53.63.63-2.89,2.89,1.54,1.54,2.89-2.89.63.63-2.89,2.89,1.54,1.54,2.89-2.89.63.63Z"/><path class="cls-8" d="M159.81-2.4l-3.34-3.34,2,4.65-.58.58-4.66-2L156.6.81l-.63.64-5-5,.61-.61,5.7,2.42L154.87-7.4l.61-.61,5,5Z"/><path class="cls-8" d="M132.57-.8,129.43-2,128-.6l2.17,2.17-.64.64-5-5,2.16-2.16a2,2,0,0,1,2.77,0A2,2,0,0,1,130-2.76l3.29,1.27Zm-5.19-3.49-1.52,1.52,1.54,1.54,1.52-1.52a1.06,1.06,0,0,0,0-1.51A1.06,1.06,0,0,0,127.38-4.29Z"/></g><g class="cls-28"><path class="cls-8" d="M121.2,36.21,118.06,35l-1.4,1.4,2.17,2.17-.64.64-5-5,2.16-2.16a2,2,0,0,1,2.77,0,2,2,0,0,1,.45,2.13l3.29,1.27ZM116,32.72l-1.52,1.52L116,35.78l1.52-1.52A1.09,1.09,0,0,0,116,32.72Z"/><path class="cls-8" d="M124.33,29.56a2.49,2.49,0,0,1-3.53,3.53l-1.45-1.45a2.49,2.49,0,0,1,3.53-3.53Zm-2.08-.81A1.59,1.59,0,1,0,120,31l1.45,1.45a1.59,1.59,0,1,0,2.25-2.25Z"/><path class="cls-8" d="M127.15,30.26l-5-5,3.53-3.53.63.63-2.89,2.89L125,26.82l2.89-2.89.63.63-2.89,2.89L127.16,29l2.89-2.89.63.63Z"/><path class="cls-8" d="M135.62,21.79l-3.34-3.34,2,4.65-.58.58-4.66-2L132.41,25l-.64.64-5-5,.61-.61,5.7,2.42-2.44-5.69.61-.61,5,5Z"/><path class="cls-8" d="M108.38,23.39l-3.14-1.2-1.4,1.4L106,25.76l-.64.64-5-5,2.16-2.16a2,2,0,0,1,2.77,0,2,2,0,0,1,.45,2.13l3.29,1.27Zm-5.19-3.49-1.52,1.52L103.21,23l1.52-1.52a1.09,1.09,0,0,0-1.54-1.54Z"/><path class="cls-8" d="M111.51,16.74A2.49,2.49,0,0,1,108,20.27l-1.45-1.45a2.49,2.49,0,0,1,3.53-3.53Zm-2.08-.81a1.59,1.59,0,1,0-2.26,2.25l1.45,1.45a1.59,1.59,0,1,0,2.25-2.25Z"/><path class="cls-8" d="M114.33,17.44l-5-5,3.53-3.53.63.63-2.89,2.89L112.17,14l2.89-2.89.63.63-2.89,2.89,1.54,1.54,2.89-2.89.63.63Z"/><path class="cls-8" d="M122.8,9l-3.34-3.34,2,4.65-.58.58-4.66-2,3.34,3.34-.64.64-5-5,.61-.61,5.7,2.42L117.86,4l.61-.61,5,5Z"/><path class="cls-8" d="M95.56,10.57l-3.14-1.2L91,10.77l2.17,2.17-.64.64-5-5,2.16-2.16a2,2,0,0,1,2.77,0A2,2,0,0,1,93,8.61l3.29,1.27ZM90.37,7.08,88.85,8.6l1.54,1.54,1.52-1.52a1.09,1.09,0,0,0-1.54-1.54Z"/><path class="cls-8" d="M98.69,3.92a2.49,2.49,0,0,1-3.53,3.53L93.71,6a2.49,2.49,0,0,1,3.53-3.53ZM96.6,3.11a1.59,1.59,0,1,0-2.25,2.25L95.8,6.81a1.59,1.59,0,1,0,2.25-2.25Z"/><path class="cls-8" d="M101.51,4.61l-5-5,3.53-3.53.63.63L97.81-.36l1.54,1.54,2.89-2.89.63.63L100,1.81l1.54,1.54L104.41.46l.63.63Z"/></g><g class="cls-29"><path class="cls-8" d="M87.32,40.93a2.49,2.49,0,0,1-3.53,3.53L82.34,43a2.49,2.49,0,0,1,3.53-3.53Zm-2.08-.81A1.59,1.59,0,1,0,83,42.37l1.45,1.45a1.59,1.59,0,1,0,2.25-2.25Z"/><path class="cls-8" d="M90.14,41.63l-5-5,3.53-3.53.63.63-2.89,2.89L88,38.19l2.89-2.89.63.63-2.89,2.89,1.54,1.54L93,37.47l.63.63Z"/><path class="cls-8" d="M98.61,33.16l-3.34-3.34,2,4.65-.58.58-4.66-2,3.34,3.34-.64.64-5-5,.61-.61,5.7,2.42-2.44-5.69.61-.61,5,5Z"/><path class="cls-8" d="M71.36,34.76l-3.14-1.2L66.83,35,69,37.13l-.64.64-5-5,2.16-2.16a2,2,0,0,1,2.77,0,2,2,0,0,1,.45,2.13l3.29,1.27Zm-5.19-3.49-1.52,1.52,1.54,1.54,1.52-1.52a1.09,1.09,0,0,0-1.54-1.54Z"/><path class="cls-8" d="M74.5,28.11A2.49,2.49,0,0,1,71,31.64l-1.45-1.45A2.49,2.49,0,0,1,73,26.66Zm-2.08-.81a1.59,1.59,0,1,0-2.25,2.25L71.61,31a1.59,1.59,0,1,0,2.25-2.25Z"/><path class="cls-8" d="M77.32,28.81l-5-5,3.53-3.53.63.63-2.89,2.89,1.54,1.54L78,22.48l.63.63L75.79,26l1.54,1.54,2.89-2.89.63.63Z"/><path class="cls-8" d="M85.79,20.34,82.45,17l2,4.65-.58.58-4.66-2,3.34,3.34-.64.64-5-5,.61-.61L83.29,21l-2.44-5.69.61-.61,5,5Z"/></g><g class="cls-30"><path class="cls-8" d="M61.6,44.53l-3.34-3.34,2,4.65-.58.58-4.66-2,3.34,3.34-.64.64-5-5,.61-.61,5.7,2.42-2.44-5.69.61-.61,5,5Z"/></g><g class="cls-31"><path class="cls-8" d="M95.56,10.57l-3.14-1.2L91,10.77l2.17,2.17-.64.64-5-5,2.16-2.16a2,2,0,0,1,2.77,0A2,2,0,0,1,93,8.61l3.29,1.27ZM90.37,7.08,88.85,8.6l1.54,1.54,1.52-1.52a1.09,1.09,0,0,0-1.54-1.54Z"/><path class="cls-8" d="M98.69,3.92a2.49,2.49,0,0,1-3.53,3.53L93.71,6a2.49,2.49,0,0,1,3.53-3.53ZM96.6,3.11a1.59,1.59,0,1,0-2.25,2.25L95.8,6.81a1.59,1.59,0,1,0,2.25-2.25Z"/><path class="cls-8" d="M101.51,4.62l-5-5,3.53-3.53.63.63L97.81-.36l1.54,1.54,2.89-2.89.63.63L100,1.81l1.54,1.54L104.41.46l.63.63Z"/><path class="cls-8" d="M82.73-2.25,79.6-3.45l-1.4,1.4L80.37.12l-.64.64-5-5,2.16-2.16a2,2,0,0,1,2.77,0,2,2,0,0,1,.45,2.13l3.29,1.27ZM77.55-5.74,76-4.22l1.54,1.54L79.09-4.2a1.06,1.06,0,0,0,0-1.51A1.06,1.06,0,0,0,77.55-5.74Z"/></g><g class="cls-32"><path class="cls-8" d="M71.36,34.76l-3.14-1.2L66.83,35,69,37.13l-.64.64-5-5,2.16-2.16a2,2,0,0,1,2.77,0,2,2,0,0,1,.45,2.13l3.29,1.27Zm-5.19-3.49-1.52,1.52,1.54,1.54,1.52-1.52a1.09,1.09,0,0,0-1.54-1.54Z"/><path class="cls-8" d="M74.5,28.11A2.49,2.49,0,0,1,71,31.64l-1.45-1.45A2.49,2.49,0,0,1,73,26.66Zm-2.08-.81a1.59,1.59,0,1,0-2.25,2.25L71.61,31a1.59,1.59,0,1,0,2.25-2.25Z"/><path class="cls-8" d="M77.32,28.81l-5-5,3.53-3.53.63.63-2.89,2.89,1.54,1.54L78,22.48l.63.63L75.79,26l1.54,1.54,2.89-2.89.63.63Z"/><path class="cls-8" d="M85.79,20.34,82.45,17l2,4.65-.58.58-4.66-2,3.34,3.34-.64.64-5-5,.61-.61L83.29,21l-2.44-5.69.61-.61,5,5Z"/><path class="cls-8" d="M58.54,21.94l-3.14-1.2L54,22.14l2.17,2.17-.64.64-5-5,2.16-2.16a2,2,0,0,1,2.77,0A2,2,0,0,1,55.95,20l3.29,1.27Zm-5.19-3.49L51.84,20l1.54,1.54L54.9,20a1.09,1.09,0,0,0-1.54-1.54Z"/><path class="cls-8" d="M61.68,15.29a2.49,2.49,0,0,1-3.53,3.53L56.7,17.37a2.49,2.49,0,0,1,3.53-3.53Zm-2.08-.81a1.59,1.59,0,1,0-2.25,2.25l1.45,1.45A1.59,1.59,0,1,0,61,15.92Z"/><path class="cls-8" d="M64.5,16l-5-5,3.53-3.53.63.63L60.8,11l1.54,1.54,2.89-2.89.63.63L63,13.18l1.54,1.54,2.89-2.89.63.63Z"/><path class="cls-8" d="M73,7.52,69.62,4.17l2,4.65-.58.58-4.66-2,3.34,3.34-.64.64-5-5,.61-.61,5.7,2.42L68,2.52l.61-.61,5,5Z"/><path class="cls-8" d="M45.72,9.12l-3.14-1.2-1.4,1.4,2.17,2.17-.64.64-5-5L39.91,5a2,2,0,0,1,2.77,0,2,2,0,0,1,.45,2.13l3.29,1.27ZM40.53,5.63,39,7.15l1.54,1.54,1.52-1.52a1.09,1.09,0,0,0-1.54-1.54Z"/><path class="cls-8" d="M48.85,2.47A2.49,2.49,0,0,1,45.33,6L43.88,4.54A2.49,2.49,0,0,1,47.41,1Zm-2.08-.81a1.59,1.59,0,1,0-2.25,2.25L46,5.36A1.59,1.59,0,1,0,48.22,3.1Z"/><path class="cls-8" d="M51.68,3.16l-5-5,3.53-3.53.63.63L48-1.81,49.51-.27l2.89-2.89.63.63L50.14.36,51.68,1.9,54.57-1l.63.63Z"/></g><g class="cls-33"><path class="cls-8" d="M61.6,44.53l-3.34-3.34,2,4.65-.58.58-4.66-2,3.34,3.34-.64.64-5-5,.61-.61,5.7,2.42-2.44-5.69.61-.61,5,5Z"/><path class="cls-8" d="M37.48,39.48A2.49,2.49,0,0,1,34,43l-1.45-1.45A2.49,2.49,0,0,1,36,38Zm-2.08-.81a1.59,1.59,0,1,0-2.25,2.25l1.45,1.45a1.59,1.59,0,1,0,2.25-2.25Z"/><path class="cls-8" d="M40.31,40.18l-5-5,3.53-3.53.63.63L36.6,35.2l1.54,1.54L41,33.85l.63.63-2.89,2.89,1.54,1.54L43.2,36l.63.63Z"/><path class="cls-8" d="M48.78,31.71l-3.34-3.34,2,4.65-.58.58-4.66-2,3.34,3.34-.64.64-5-5,.61-.61,5.7,2.42-2.44-5.69.61-.61,5,5Z"/><path class="cls-8" d="M21.53,33.31l-3.14-1.2L17,33.51l2.17,2.17-.64.64-5-5,2.16-2.16a2,2,0,0,1,2.77,0,2,2,0,0,1,.45,2.13l3.29,1.27Zm-5.19-3.49-1.52,1.52,1.54,1.54,1.52-1.52a1.09,1.09,0,0,0-1.54-1.54Z"/><path class="cls-8" d="M24.66,26.66a2.49,2.49,0,0,1-3.53,3.53l-1.45-1.45a2.49,2.49,0,0,1,3.53-3.53Zm-2.08-.81a1.59,1.59,0,1,0-2.25,2.25l1.45,1.45A1.59,1.59,0,1,0,24,27.29Z"/><path class="cls-8" d="M27.49,27.35l-5-5L26,18.86l.63.63-2.89,2.89,1.54,1.54L28.21,21l.63.63L26,24.55l1.54,1.54,2.89-2.89.63.63Z"/><path class="cls-8" d="M36,18.89l-3.34-3.34,2,4.65-.58.58-4.66-2,3.34,3.34-.64.64-5-5,.61-.61,5.7,2.42L31,13.89l.61-.61,5,5Z"/></g><g class="cls-34"><path class="cls-8" d="M11.76,43.08,8.42,39.73l2,4.65L9.88,45l-4.66-2,3.34,3.34-.64.64L3,42l.61-.61,5.7,2.42L6.82,38.08l.61-.61,5,5Z"/></g><g class="cls-35"><path class="cls-8" d="M45.72,9.12l-3.14-1.2-1.4,1.4,2.17,2.17-.64.64-5-5L39.91,5a2,2,0,0,1,2.77,0,2,2,0,0,1,.45,2.13l3.29,1.27ZM40.53,5.63,39,7.15l1.54,1.54,1.52-1.52a1.09,1.09,0,0,0-1.54-1.54Z"/><path class="cls-8" d="M48.85,2.47A2.49,2.49,0,0,1,45.33,6L43.88,4.54A2.49,2.49,0,0,1,47.41,1Zm-2.08-.81a1.59,1.59,0,1,0-2.25,2.25L46,5.36A1.59,1.59,0,1,0,48.22,3.1Z"/><path class="cls-8" d="M51.68,3.16l-5-5,3.53-3.53.63.63L48-1.81,49.51-.27l2.89-2.89.63.63L50.14.36,51.68,1.9,54.57-1l.63.63Z"/></g><g class="cls-36"><path class="cls-8" d="M21.53,33.31l-3.14-1.2L17,33.51l2.17,2.17-.64.64-5-5,2.16-2.16a2,2,0,0,1,2.77,0,2,2,0,0,1,.45,2.13l3.29,1.27Zm-5.19-3.49-1.52,1.52,1.54,1.54,1.52-1.52a1.09,1.09,0,0,0-1.54-1.54Z"/><path class="cls-8" d="M24.66,26.66a2.49,2.49,0,0,1-3.53,3.53l-1.45-1.45a2.49,2.49,0,0,1,3.53-3.53Zm-2.08-.81a1.59,1.59,0,1,0-2.26,2.25l1.45,1.45A1.59,1.59,0,1,0,24,27.29Z"/><path class="cls-8" d="M27.49,27.36l-5-5L26,18.86l.63.63-2.89,2.89,1.54,1.54L28.21,21l.63.63L26,24.55l1.54,1.54,2.89-2.89.63.63Z"/><path class="cls-8" d="M36,18.89l-3.34-3.34,2,4.65-.58.58-4.66-2,3.34,3.34-.64.64-5-5,.61-.61,5.7,2.42L31,13.89l.61-.61,5,5Z"/><path class="cls-8" d="M8.71,20.49l-3.14-1.2-1.4,1.4,2.17,2.17-.64.64-5-5,2.16-2.16a2,2,0,0,1,2.77,0,2,2,0,0,1,.45,2.13L9.4,19.8ZM3.52,17,2,18.52l1.54,1.54,1.52-1.52A1.09,1.09,0,0,0,3.52,17Z"/><path class="cls-8" d="M11.84,13.84a2.49,2.49,0,0,1-3.53,3.53L6.87,15.91a2.49,2.49,0,0,1,3.53-3.53ZM9.76,13A1.59,1.59,0,1,0,7.5,15.28L9,16.73a1.59,1.59,0,1,0,2.25-2.25Z"/><path class="cls-8" d="M14.66,14.53l-5-5L13.22,6l.63.63L11,9.56,12.5,11.1l2.89-2.89.63.63-2.89,2.89,1.54,1.54,2.89-2.89.63.63Z"/><path class="cls-8" d="M23.13,6.06,19.79,2.72l2,4.65L21.25,8l-4.66-2,3.34,3.34-.64.64-5-5,.61-.61,5.7,2.42L18.19,1.07,18.8.46l5,5Z"/><path class="cls-8" d="M1.84,1.71l-5-5L.4-6.78,1-6.15-1.86-3.26-.32-1.72,2.57-4.61,3.2-4,.31-1.09,1.85.45,4.74-2.44l.63.63Z"/></g><g class="cls-37"><path class="cls-8" d="M11.76,43.08,8.42,39.73l2,4.65L9.88,45l-4.66-2,3.34,3.34-.64.64L3,42l.61-.61,5.7,2.42L6.82,38.08l.61-.61,5,5Z"/></g></g></svg>