<svg id="Layer_1" data-name="Layer 1" xmlns="http://www.w3.org/2000/svg" xmlns:xlink="http://www.w3.org/1999/xlink" viewBox="0 0 120 120"><defs><style>.cls-1{fill:none;}.cls-2{clip-path:url(#clip-path);}.cls-3{fill:#121212;}.cls-4{fill:#fff;}</style><clipPath id="clip-path"><rect class="cls-1" width="120" height="120"/></clipPath></defs><title>logo-de-studio</title><g class="cls-2"><rect class="cls-3" width="120" height="120"/><path class="cls-4" d="M25.82,97.88a6.37,6.37,0,0,1,0,9l-4.49,4.49L8.64,98.69l4.49-4.49a6.36,6.36,0,0,1,9,0ZM20.5,95.81a4.07,4.07,0,0,0-5.77,0l-2.87,2.87,9.46,9.46,2.87-2.87a4.08,4.08,0,0,0,0-5.77Z"/><path class="cls-4" d="M33.72,99,21,86.29l9-9,1.6,1.6-7.37,7.37L28.2,90.2l7.37-7.37,1.6,1.6L29.8,91.8l3.93,3.93,7.37-7.37,1.6,1.6Z"/><path class="cls-4" d="M57.41,75.27l-2,2a4.92,4.92,0,0,1-5.7.9l1-2a2.7,2.7,0,0,0,3.1-.47l2-2a2.73,2.73,0,0,0-.09-3.84c-1-1-2.13-.76-3.35-.07-.94.54-1.91,1.3-3,2-2,1.35-4.25,2.27-6.6-.07a5,5,0,0,1-.07-7.07l2-2a5,5,0,0,1,5.68-.92l-1,2.06a2.63,2.63,0,0,0-3.07.47l-2,2A2.71,2.71,0,0,0,44.43,70c1,1,2.13.76,3.35.07.94-.54,1.91-1.3,3-2,2-1.35,4.25-2.27,6.6.07A5,5,0,0,1,57.41,75.27Z"/><path class="cls-4" d="M57.41,53.13,68.48,64.2l-1.6,1.6L55.8,54.73l-3.7,3.7-1.6-1.6,9-9,1.6,1.6Z"/><path class="cls-4" d="M79.41,44.29a6.36,6.36,0,0,1-9,9L62.23,45.1l1.62-1.62L72,51.66a4.07,4.07,0,1,0,5.75-5.75l-8.18-8.18,1.62-1.62Z"/><path class="cls-4" d="M92,31.67a6.37,6.37,0,0,1,0,9l-4.49,4.49L74.85,32.48,79.34,28a6.35,6.35,0,0,1,9,0ZM86.71,29.6a4.07,4.07,0,0,0-5.77,0l-2.87,2.87,9.46,9.46,2.87-2.87a4.08,4.08,0,0,0,0-5.77Z"/><path class="cls-4" d="M100,32.71,87.29,20l1.62-1.62,12.67,12.67Z"/><path class="cls-4" d="M109.51,14.19a6.36,6.36,0,0,1-9,9l-3.7-3.7a6.36,6.36,0,0,1,9-9Zm-5.32-2.07a4.07,4.07,0,1,0-5.75,5.75l3.7,3.7a4.07,4.07,0,1,0,5.75-5.75Z"/><path class="cls-4" d="M25.82,38.88a6.37,6.37,0,0,1,0,9l-4.49,4.49L8.64,39.69l4.49-4.49a6.36,6.36,0,0,1,9,0ZM20.5,36.81a4.07,4.07,0,0,0-5.77,0l-2.87,2.87,9.46,9.46,2.87-2.87a4.08,4.08,0,0,0,0-5.77Z"/><path class="cls-4" d="M33.72,40,21,27.29l9-9,1.6,1.6-7.37,7.37L28.2,31.2l7.37-7.37,1.6,1.6L29.8,32.8l3.93,3.93,7.37-7.37,1.6,1.6Z"/><path class="cls-4" d="M57.41,16.27l-2,2a4.92,4.92,0,0,1-5.7.9l1-2a2.7,2.7,0,0,0,3.1-.47l2-2a2.73,2.73,0,0,0-.09-3.84c-1-1-2.13-.76-3.35-.07-.94.54-1.91,1.3-3,2-2,1.35-4.25,2.27-6.6-.07a5,5,0,0,1-.07-7.07l2-2a5,5,0,0,1,5.68-.92l-1,2.06a2.63,2.63,0,0,0-3.07.47l-2,2A2.71,2.71,0,0,0,44.43,11c1,1,2.13.76,3.35.07.94-.54,1.91-1.3,3-2,2-1.35,4.25-2.27,6.6.07A5,5,0,0,1,57.41,16.27Z"/><path class="cls-4" d="M57.41-5.87,68.48,5.2l-1.6,1.6L55.8-4.27l-3.7,3.7-1.6-1.6,9-9,1.6,1.6Z"/><path class="cls-4" d="M57.41,113.13,68.48,124.2l-1.6,1.6L55.8,114.73l-3.7,3.7-1.6-1.6,9-9,1.6,1.6Z"/><path class="cls-4" d="M79.41,104.29a6.36,6.36,0,0,1-9,9l-8.18-8.18,1.62-1.62L72,111.66a4.07,4.07,0,1,0,5.75-5.75l-8.18-8.18,1.62-1.62Z"/><path class="cls-4" d="M92,91.67a6.37,6.37,0,0,1,0,9l-4.49,4.49L74.85,92.48,79.34,88a6.35,6.35,0,0,1,9,0ZM86.71,89.6a4.07,4.07,0,0,0-5.77,0l-2.87,2.87,9.46,9.46,2.87-2.87a4.08,4.08,0,0,0,0-5.77Z"/><path class="cls-4" d="M100,92.71,87.29,80l1.62-1.62,12.67,12.67Z"/><path class="cls-4" d="M109.51,74.19a6.36,6.36,0,0,1-9,9l-3.7-3.7a6.36,6.36,0,0,1,9-9Zm-5.32-2.07a4.07,4.07,0,1,0-5.75,5.75l3.7,3.7a4.07,4.07,0,1,0,5.75-5.75Z"/></g></svg>